<svg width="288" height="264" viewBox="0 0 288 264" fill="none" xmlns="http://www.w3.org/2000/svg">
<g filter="url(#filter0_d_802_777)">
<g filter="url(#filter1_d_802_777)">
<path d="M144 229.704C206.498 229.704 257.163 200.427 257.163 164.312C257.163 128.197 206.498 98.9202 144 98.9202C81.5019 98.9202 30.8373 128.197 30.8373 164.312C30.8373 200.427 81.5019 229.704 144 229.704Z" fill="#F5F5F5"/>
</g>
<path d="M161.759 210.107C175.275 210.107 186.231 203.776 186.231 195.967C186.231 188.157 175.275 181.826 161.759 181.826C148.243 181.826 137.286 188.157 137.286 195.967C137.286 203.776 148.243 210.107 161.759 210.107Z" fill="#E0E0E0"/>
<path d="M149.04 148.084L83.5819 185.916C81.7394 187.001 78.5259 186.849 76.3962 185.618L53.1589 172.188C51.0346 170.962 50.8015 169.102 52.6169 168.039L118.075 130.206C119.917 129.121 123.131 129.273 125.261 130.504L148.498 143.934C150.649 145.16 150.882 147.021 149.04 148.084Z" fill="#E0E0E0"/>
<path d="M219.521 161.291L224.68 164.291C224.68 164.291 222.079 155.981 223.52 147.617C223.869 145.648 224.58 143.761 225.618 142.052C226.024 141.206 229.135 135.993 226.398 133.585C223.661 131.177 217.24 135.966 217.527 148.843C217.665 153.06 218.335 157.242 219.521 161.291Z" fill="#08509F"/>
<path opacity="0.5" d="M219.521 161.291L224.68 164.291C224.68 164.291 222.079 155.981 223.52 147.617C223.869 145.648 224.58 143.761 225.618 142.052C226.024 141.206 229.135 135.993 226.398 133.585C223.661 131.177 217.24 135.966 217.527 148.843C217.665 153.06 218.335 157.242 219.521 161.291Z" fill="#05E790"/>
<path d="M221.922 162.924C221.873 162.923 221.826 162.908 221.786 162.88C221.746 162.852 221.716 162.812 221.7 162.767C221.7 162.712 219.732 157.294 219.835 148.604C219.938 139.915 224.528 135.196 224.577 135.153C224.598 135.131 224.624 135.114 224.652 135.102C224.68 135.091 224.709 135.085 224.74 135.085C224.77 135.085 224.8 135.091 224.828 135.102C224.856 135.114 224.881 135.131 224.902 135.153C224.924 135.175 224.941 135.2 224.953 135.229C224.965 135.257 224.971 135.288 224.971 135.318C224.971 135.349 224.965 135.38 224.953 135.408C224.941 135.436 224.924 135.462 224.902 135.484C224.859 135.527 220.404 140.067 220.301 148.61C220.199 157.153 222.122 162.555 222.139 162.609C222.15 162.638 222.155 162.668 222.154 162.699C222.154 162.729 222.147 162.759 222.134 162.787C222.121 162.815 222.103 162.84 222.081 162.861C222.058 162.881 222.032 162.897 222.003 162.908L221.922 162.924Z" fill="white"/>
<path d="M223.52 163.634L232.039 168.668C232.039 168.668 235.941 168.093 235.648 164.415C235.356 160.738 233.768 159.875 235.741 158.259C237.713 156.643 238.223 156.54 238.125 154.956C238.027 153.372 236.971 152.683 236.467 152.059C235.963 151.436 234.575 150.112 235.556 148.208C236.537 146.305 237.865 144.455 235.892 143.576C234.711 143.034 232.728 143.712 231.416 145.106C230.105 146.5 229.015 147.509 227.774 147.818C226.533 148.127 223.932 148.165 224.019 150.313C224.106 152.461 224.664 153.204 224.144 154.153C223.163 155.948 218.974 156.919 223.52 163.634Z" fill="#08509F"/>
<path opacity="0.2" d="M223.52 163.634L232.039 168.668C232.039 168.668 235.941 168.093 235.648 164.415C235.356 160.738 233.768 159.875 235.741 158.259C237.713 156.643 238.223 156.54 238.125 154.956C238.027 153.372 236.971 152.683 236.467 152.059C235.963 151.436 234.575 150.112 235.556 148.208C236.537 146.305 237.865 144.455 235.892 143.576C234.711 143.034 232.728 143.712 231.416 145.106C230.105 146.5 229.015 147.509 227.774 147.818C226.533 148.127 223.932 148.165 224.019 150.313C224.106 152.461 224.664 153.204 224.144 154.153C223.163 155.948 218.974 156.919 223.52 163.634Z" fill="#05E790"/>
<path d="M226.989 165.912C226.93 165.912 226.873 165.89 226.83 165.85C226.786 165.81 226.76 165.754 226.756 165.695C226.756 165.571 225.824 152.857 234.646 144.509C234.691 144.467 234.752 144.444 234.814 144.446C234.876 144.448 234.934 144.475 234.977 144.52C235.019 144.565 235.042 144.626 235.04 144.688C235.038 144.75 235.011 144.808 234.966 144.851C226.295 153.041 227.216 165.533 227.227 165.657C227.232 165.72 227.212 165.782 227.171 165.829C227.13 165.877 227.073 165.907 227.01 165.912H226.989Z" fill="white"/>
<path d="M228.539 155.016C228.479 155.016 228.423 154.993 228.379 154.953C228.336 154.913 228.31 154.858 228.305 154.799C228.24 153.822 227.976 152.87 227.531 151.999C227.085 151.128 226.468 150.357 225.715 149.733C225.69 149.714 225.669 149.691 225.653 149.665C225.637 149.639 225.626 149.61 225.621 149.579C225.617 149.549 225.618 149.518 225.625 149.488C225.632 149.458 225.646 149.429 225.664 149.404C225.682 149.379 225.705 149.358 225.731 149.342C225.757 149.326 225.786 149.315 225.817 149.311C225.847 149.306 225.878 149.307 225.908 149.314C225.938 149.322 225.967 149.335 225.992 149.353C226.804 150.016 227.471 150.84 227.949 151.773C228.428 152.707 228.708 153.73 228.772 154.777C228.776 154.838 228.756 154.898 228.717 154.945C228.677 154.992 228.621 155.021 228.56 155.026L228.539 155.016Z" fill="white"/>
<path d="M227.888 157.185C227.83 157.186 227.774 157.165 227.731 157.125C227.688 157.081 227.665 157.022 227.665 156.96C227.665 156.898 227.688 156.839 227.731 156.795C227.823 156.691 230.045 154.289 235.182 154.994C235.243 155.004 235.298 155.038 235.335 155.087C235.372 155.136 235.389 155.198 235.383 155.26C235.374 155.321 235.341 155.376 235.291 155.414C235.241 155.451 235.179 155.468 235.117 155.46C230.24 154.793 228.1 157.087 228.073 157.087C228.053 157.118 228.025 157.143 227.993 157.16C227.961 157.177 227.925 157.186 227.888 157.185Z" fill="white"/>
<path d="M63.3196 153.99L60.778 159.387C60.778 159.387 58.2039 151.067 52.2754 144.997C50.8764 143.571 49.2219 142.421 47.3981 141.607C46.5907 141.141 41.074 138.613 41.979 135.099C42.884 131.584 50.8664 131.844 57.933 142.622C60.2001 146.169 62.0101 149.989 63.3196 153.99Z" fill="#08509F"/>
<path opacity="0.5" d="M63.3196 153.99L60.778 159.387C60.778 159.387 58.2039 151.067 52.2754 144.997C50.8764 143.571 49.2219 142.421 47.3981 141.607C46.5907 141.141 41.074 138.613 41.979 135.099C42.884 131.584 50.8664 131.844 57.933 142.622C60.2001 146.169 62.0101 149.989 63.3196 153.99Z" fill="#05E790"/>
<path d="M62.1382 156.735C62.0866 156.735 62.0365 156.717 61.9954 156.686C61.9544 156.655 61.9246 156.611 61.9105 156.561C61.9105 156.507 60.4474 151.013 55.4889 143.989C50.5303 136.964 44.3254 135.804 44.2875 135.793C44.2572 135.788 44.2282 135.776 44.2023 135.76C44.1763 135.743 44.1539 135.722 44.1362 135.697C44.1186 135.672 44.1061 135.643 44.0995 135.613C44.0929 135.583 44.0924 135.552 44.0978 135.522C44.1097 135.461 44.1445 135.407 44.1951 135.372C44.2456 135.337 44.3078 135.322 44.3688 135.332C44.4338 135.332 50.8717 136.579 55.9007 143.717C60.9297 150.855 62.4037 156.388 62.4037 156.442C62.4186 156.502 62.4095 156.566 62.3781 156.62C62.3467 156.674 62.2956 156.713 62.2357 156.73L62.1382 156.735Z" fill="white"/>
<path d="M61.358 158.194L57.1852 167.16C57.1852 167.16 53.6465 168.901 51.8094 165.706C49.9723 162.511 50.7798 160.9 48.2436 160.689C45.7075 160.477 45.2198 160.689 44.4015 159.327C43.5832 157.966 44.0655 156.794 44.1251 155.997C44.1847 155.2 44.5857 153.318 42.6944 152.303C40.8032 151.289 38.6626 150.53 39.7952 148.686C40.4672 147.601 42.4723 146.999 44.3473 147.406C46.2223 147.812 47.68 148.018 48.8885 147.579C50.097 147.14 52.2484 145.686 53.3972 147.503C54.5461 149.32 54.4811 150.248 55.4728 150.758C57.2936 151.658 61.2929 150.074 61.358 158.194Z" fill="#08509F"/>
<path opacity="0.2" d="M61.358 158.194L57.1852 167.16C57.1852 167.16 53.6465 168.901 51.8094 165.706C49.9723 162.511 50.7798 160.9 48.2436 160.689C45.7075 160.477 45.2198 160.689 44.4015 159.327C43.5832 157.966 44.0655 156.794 44.1251 155.997C44.1847 155.2 44.5857 153.318 42.6944 152.303C40.8032 151.289 38.6626 150.53 39.7952 148.686C40.4672 147.601 42.4723 146.999 44.3473 147.406C46.2223 147.812 47.68 148.018 48.8885 147.579C50.097 147.14 52.2484 145.686 53.3972 147.503C54.5461 149.32 54.4811 150.248 55.4728 150.758C57.2936 151.658 61.2929 150.074 61.358 158.194Z" fill="#05E790"/>
<path d="M59.6563 162.077C59.6153 162.078 59.5749 162.066 59.5396 162.045C59.5043 162.024 59.4754 161.994 59.4558 161.958C59.3908 161.85 53.0558 151.05 41.2854 149.223C41.2546 149.218 41.2251 149.207 41.1985 149.191C41.172 149.175 41.1489 149.153 41.1307 149.128C41.1125 149.103 41.0996 149.074 41.0927 149.044C41.0857 149.013 41.0849 148.982 41.0903 148.951C41.0943 148.921 41.1044 148.891 41.12 148.865C41.1356 148.838 41.1565 148.815 41.1813 148.797C41.2062 148.779 41.2344 148.766 41.2644 148.759C41.2944 148.752 41.3255 148.751 41.3559 148.756C53.3539 150.622 59.781 161.616 59.8623 161.725C59.8818 161.761 59.8918 161.802 59.8912 161.843C59.8905 161.884 59.8793 161.924 59.8586 161.959C59.8379 161.995 59.8084 162.024 59.773 162.045C59.7375 162.066 59.6974 162.077 59.6563 162.077Z" fill="white"/>
<path d="M52.2267 153.974C52.1849 153.974 52.1439 153.963 52.1078 153.942C52.0716 153.921 52.0416 153.891 52.0207 153.855C51.4826 152.956 51.1359 151.956 51.0025 150.917C50.8692 149.878 50.952 148.823 51.2458 147.818C51.2561 147.789 51.272 147.762 51.2926 147.74C51.3131 147.717 51.338 147.699 51.3656 147.686C51.3933 147.672 51.4233 147.665 51.4539 147.663C51.4845 147.662 51.515 147.666 51.5439 147.677C51.5727 147.687 51.5992 147.703 51.6219 147.724C51.6445 147.744 51.663 147.769 51.676 147.797C51.6891 147.824 51.6966 147.854 51.6981 147.885C51.6996 147.916 51.6951 147.946 51.6848 147.975C51.4198 148.917 51.348 149.903 51.4737 150.873C51.5995 151.844 51.9201 152.778 52.4163 153.622C52.4318 153.648 52.4418 153.678 52.4458 153.708C52.4498 153.739 52.4478 153.77 52.4397 153.8C52.4316 153.829 52.4178 153.857 52.3989 153.882C52.38 153.906 52.3564 153.926 52.3296 153.942C52.2987 153.961 52.2632 153.972 52.2267 153.974Z" fill="white"/>
<path d="M47.0297 158.096C46.9972 158.096 46.9651 158.089 46.9353 158.076C46.9055 158.063 46.8786 158.044 46.8562 158.02C46.8344 157.999 46.8172 157.973 46.8054 157.945C46.7936 157.916 46.7875 157.886 46.7875 157.855C46.7875 157.824 46.7936 157.794 46.8054 157.765C46.8172 157.737 46.8344 157.711 46.8562 157.69C50.6822 154.191 53.9011 154.907 54.0095 154.94C54.0395 154.947 54.0677 154.96 54.0927 154.978C54.1177 154.996 54.1388 155.018 54.1549 155.044C54.171 155.071 54.1818 155.1 54.1866 155.13C54.1914 155.161 54.1902 155.192 54.1829 155.222C54.1766 155.252 54.1642 155.281 54.1464 155.306C54.1286 155.332 54.1058 155.353 54.0794 155.369C54.053 155.385 54.0236 155.396 53.9929 155.401C53.9623 155.405 53.9311 155.403 53.9011 155.395C53.8686 155.395 50.8014 154.717 47.1706 158.037C47.131 158.071 47.0817 158.092 47.0297 158.096Z" fill="white"/>
<path d="M61.4178 44.7291C61.4183 43.1497 61.8337 41.5983 62.6222 40.2303C63.4106 38.8623 64.5446 37.7258 65.9102 36.9347L123.093 3.89168C123.475 3.67153 123.901 3.53972 124.34 3.50594C124.779 3.47215 125.22 3.53725 125.63 3.69645C126.041 3.85565 126.411 4.10491 126.713 4.42591C127.014 4.74691 127.24 5.1315 127.374 5.55143C127.221 4.87866 126.933 4.24374 126.529 3.6846C126.125 3.12545 125.613 2.65353 125.022 2.29702L124.816 2.1777C123.393 1.33033 121.768 0.882511 120.113 0.881357C119.583 0.87634 119.063 1.01506 118.606 1.28273L61.4232 34.3421C60.0554 35.1312 58.9195 36.2671 58.1299 37.6355C57.3402 39.0038 56.9248 40.5562 56.9253 42.1364V165.907C56.926 166.424 57.0624 166.932 57.3209 167.38C57.5794 167.827 57.9509 168.199 58.3982 168.458C58.8455 168.717 59.3529 168.853 59.8696 168.854C60.3862 168.854 60.8939 168.719 61.3419 168.462L61.4178 168.418V44.7291Z" fill="#37474F"/>
<path d="M123.017 138.011L65.8343 171.054C65.387 171.313 64.8794 171.45 64.3626 171.45C63.8458 171.451 63.338 171.315 62.8903 171.057C62.4426 170.798 62.0708 170.426 61.8123 169.978C61.5538 169.53 61.4177 169.022 61.4177 168.505V44.729C61.4183 43.1497 61.8336 41.5983 62.6221 40.2303C63.4106 38.8623 64.5445 37.7258 65.9102 36.9347L123.093 3.89164C123.541 3.63404 124.049 3.4988 124.565 3.49945C125.082 3.50011 125.589 3.63665 126.037 3.89539C126.484 4.15413 126.856 4.52598 127.114 4.97369C127.373 5.42141 127.509 5.92925 127.51 6.44635V130.217C127.51 131.796 127.095 133.348 126.307 134.716C125.518 136.085 124.384 137.221 123.017 138.011Z" fill="#7B8286"/>
<path d="M61.4178 168.505V44.7289C61.4184 43.3804 61.7221 42.0494 62.3065 40.8344L57.8845 38.1224C57.2547 39.3762 56.9262 40.76 56.9253 42.1633V166.97C56.9254 167.461 57.0528 167.943 57.295 168.37C57.5372 168.797 57.886 169.154 58.3072 169.405L60.5886 170.761C61.3783 171.233 62.2809 171.483 63.2007 171.483H64.3387C63.9515 171.479 63.5689 171.399 63.2126 171.248C62.8563 171.096 62.5333 170.876 62.262 170.599C61.9908 170.323 61.7766 169.995 61.6318 169.636C61.4869 169.277 61.4142 168.892 61.4178 168.505Z" fill="#383526"/>
<path d="M121.05 15.792V119.852C121.049 121.247 120.681 122.617 119.984 123.825C119.287 125.033 118.285 126.037 117.078 126.735L66.5821 155.91C66.2015 156.132 65.7704 156.251 65.3303 156.258C65.476 156.595 65.6913 156.897 65.9622 157.145C66.2331 157.393 66.5534 157.581 66.9019 157.697C67.2505 157.812 67.6195 157.852 67.9847 157.814C68.3499 157.777 68.703 157.662 69.0208 157.478L119.516 128.297C120.723 127.599 121.725 126.595 122.421 125.387C123.117 124.179 123.484 122.809 123.483 121.414V18.3847C123.484 17.7235 123.233 17.0868 122.781 16.6048C122.329 16.1229 121.709 15.8321 121.05 15.792Z" fill="#37474F"/>
<path d="M65.3304 156.23C65.7705 156.224 66.2015 156.104 66.5822 155.883L117.078 126.708C118.281 126.012 119.28 125.013 119.977 123.81C120.674 122.607 121.044 121.242 121.05 119.852V15.792C120.543 15.7963 120.043 15.913 119.587 16.1337L69.0913 45.3095C67.8836 46.0067 66.8808 47.0098 66.1835 48.2181C65.4862 49.4264 65.119 50.7972 65.119 52.1925V155.194C65.1185 155.556 65.1923 155.915 65.3358 156.247L65.3304 156.23Z" fill="#08509F"/>
<g opacity="0.5">
<path d="M65.3304 156.23C65.7705 156.224 66.2015 156.104 66.5822 155.883L117.078 126.708C118.281 126.012 119.28 125.013 119.977 123.81C120.674 122.607 121.044 121.242 121.05 119.852V15.792C120.543 15.7963 120.043 15.913 119.587 16.1337L69.0913 45.3095C67.8836 46.0067 66.8808 47.0098 66.1835 48.2181C65.4862 49.4264 65.119 50.7972 65.119 52.1925V155.194C65.1185 155.556 65.1923 155.915 65.3358 156.247L65.3304 156.23Z" fill="white"/>
</g>
<path d="M86.4596 30.0625C86.4424 30.378 86.3516 30.6852 86.1944 30.9593C86.0372 31.2334 85.8181 31.4668 85.5546 31.6409C85.0506 31.9283 84.6442 31.6951 84.6442 31.0985C84.6615 30.7823 84.753 30.4747 84.9112 30.2005C85.0693 29.9263 85.2897 29.6932 85.5546 29.5201C86.0531 29.2706 86.4596 29.4821 86.4596 30.0625Z" fill="#383526"/>
<path d="M89.8466 28.1098C89.8284 28.4257 89.7365 28.733 89.5784 29.0071C89.4204 29.2811 89.2004 29.5144 88.9362 29.6881C88.4322 29.9756 88.0258 29.7424 88.0258 29.1457C88.0431 28.8296 88.1346 28.522 88.2928 28.2478C88.4509 27.9736 88.6713 27.7405 88.9362 27.5674C89.4347 27.2962 89.8466 27.5294 89.8466 28.1098Z" fill="#383526"/>
<path d="M103.497 21.2701L92.5181 27.6433C92.0792 27.8928 91.7269 27.6433 91.7269 27.0467C91.7315 26.7508 91.8055 26.4603 91.943 26.1983C92.0804 25.9364 92.2774 25.7105 92.5181 25.5388L103.514 19.1873C103.947 18.9323 104.299 19.1873 104.299 19.7785C104.291 20.0724 104.214 20.3602 104.074 20.6191C103.935 20.878 103.738 21.1009 103.497 21.2701Z" fill="#383526"/>
<path d="M101.639 141.916C102.294 141.916 102.722 142.616 102.722 143.696C102.722 145.388 101.666 147.433 100.408 148.16L95.1465 151.202C94.9114 151.349 94.6428 151.433 94.3661 151.446C93.7104 151.446 93.2823 150.747 93.2823 149.667C93.2823 147.97 94.3661 145.925 95.5963 145.203L100.858 142.161C101.095 142.013 101.366 141.929 101.644 141.916M101.644 141.466C101.286 141.477 100.938 141.584 100.636 141.775L95.3741 144.813C93.9705 145.621 92.8325 147.796 92.8325 149.695C92.8325 151.088 93.4666 151.924 94.3661 151.924C94.7238 151.913 95.0719 151.806 95.3741 151.615L100.636 148.577C102.034 147.769 103.172 145.594 103.172 143.696C103.172 142.302 102.544 141.466 101.644 141.466Z" fill="#383526"/>
<path d="M72.5702 59.4877V176.104C72.5702 178.219 73.3451 179.635 74.5265 180.101H74.559L79.5988 182.862L79.5663 178.382L79.0244 57.4645L73.7082 54.7525C72.9948 56.2312 72.6067 57.846 72.5702 59.4877Z" fill="#E6E6E6"/>
<path d="M79.8753 183.312L74.4236 180.324C73.0743 179.781 72.2993 178.192 72.2993 176.077V59.4606C72.3281 57.7692 72.7219 56.104 73.4536 54.579L73.5728 54.3241L79.2846 57.2476V57.4104L79.8265 178.328L79.8753 183.312ZM74.7 179.857L79.328 182.396V178.371L78.786 57.6165L73.8709 55.0997C73.249 56.4749 72.9135 57.9623 72.8846 59.4715V176.088C72.8846 177.997 73.5511 179.396 74.6729 179.836L74.7379 179.868L74.7 179.857Z" fill="#E6E6E6"/>
<path d="M73.6973 54.7634L79.0135 57.4754L135.914 24.3402L139.708 22.1272L134.457 19.1657L134.31 19.0789C133.47 18.5744 132.376 18.607 131.167 19.3067L77.3118 50.4242C75.7032 51.4793 74.4449 52.9899 73.6973 54.7634Z" fill="#E0E0E0"/>
<path d="M79.0135 57.7414C78.97 57.7409 78.9272 57.7297 78.8889 57.7088L73.5727 54.9968C73.5415 54.9818 73.5136 54.9607 73.4906 54.9347C73.4677 54.9088 73.4501 54.8785 73.439 54.8456C73.4279 54.8128 73.4235 54.7781 73.426 54.7435C73.4284 54.7089 73.4378 54.6752 73.4535 54.6443C74.2281 52.8261 75.5236 51.2784 77.1765 50.1966L131.043 19.0682C132.289 18.3522 133.503 18.2708 134.457 18.8458H134.5L134.609 18.9109L139.854 21.867C139.895 21.8919 139.929 21.9269 139.953 21.9687C139.977 22.0104 139.989 22.0576 139.99 22.1056C139.991 22.1532 139.978 22.2 139.955 22.2412C139.931 22.2823 139.896 22.3161 139.854 22.3388L79.1599 57.6871C79.1172 57.7186 79.0664 57.7374 79.0135 57.7414ZM74.055 54.6226L79.0081 57.161L139.161 22.1273L134.17 19.3068L134.132 19.2743C133.357 18.8295 132.354 18.9217 131.303 19.5292L77.4366 50.6576C75.9561 51.631 74.7831 53.0063 74.055 54.6226Z" fill="#E0E0E0"/>
<path d="M77.7834 62.4168V178.491C77.7834 180.318 78.3687 181.631 79.2954 182.249L79.6043 182.418C80.4117 182.797 81.4251 182.716 82.5252 182.076L108.564 167.04L136.413 150.28C137.839 149.387 139.02 148.152 139.849 146.687C140.678 145.222 141.129 143.573 141.16 141.889V25.8155C141.16 24.0473 140.618 22.7672 139.741 22.1218C139.592 22.0106 139.43 21.9195 139.258 21.8506C138.788 21.6843 138.286 21.631 137.792 21.6951C137.297 21.7592 136.825 21.9388 136.413 22.2194L82.5469 53.8739C81.0272 54.67 79.798 55.9269 79.0353 57.4646C78.2534 59.0009 77.8256 60.6931 77.7834 62.4168Z" fill="#FAFAFA"/>
<path d="M136.413 150.28C125.331 156.898 96.4957 174.119 82.2216 182.727C81.7958 182.982 81.31 183.119 80.8138 183.125C80.3176 183.131 79.8286 183.005 79.3968 182.761C78.965 182.516 78.6057 182.161 78.3556 181.732C78.1055 181.303 77.9735 180.815 77.973 180.318V60.9576C77.973 59.5989 78.3281 58.2638 79.003 57.0848C79.678 55.9059 80.6493 54.9242 81.8206 54.2373L136.652 22.0621C137.078 21.8134 137.561 21.6814 138.055 21.6794C138.548 21.6774 139.033 21.8055 139.461 22.0507C139.889 22.2959 140.245 22.6497 140.492 23.0764C140.74 23.5031 140.872 23.9876 140.873 24.4812V142.377C140.874 143.968 140.463 145.531 139.682 146.916C138.9 148.301 137.774 149.46 136.413 150.28Z" fill="#FAFAFA"/>
<path d="M136.256 150.042C127.553 155.227 118.853 160.427 110.157 165.641L94.7129 174.889L87.668 179.12L84.5845 180.975C83.6361 181.544 82.6282 182.358 81.5768 182.721C79.8373 183.329 78.2712 181.935 78.2278 180.215C78.2278 179.939 78.2278 179.673 78.2278 179.386V69.9508C78.2278 67.0381 78.2278 64.12 78.2278 61.2073C78.2079 59.8282 78.556 58.4689 79.2361 57.2694C79.9163 56.0699 80.9039 55.0738 82.0971 54.3839C83.3543 53.6408 84.617 52.9086 85.8905 52.1709L103.589 41.7459L124.589 29.428C128.572 27.0957 132.544 24.7417 136.511 22.4202C137.746 21.7042 139.302 21.7747 140.163 23.0711C140.468 23.5886 140.611 24.1854 140.575 24.7851V141.922C140.629 143.54 140.257 145.143 139.496 146.571C138.735 148 137.612 149.202 136.24 150.058C135.942 150.242 136.213 150.714 136.511 150.53C137.954 149.635 139.139 148.379 139.949 146.886C140.759 145.392 141.165 143.713 141.128 142.014V33.1272C141.128 30.2959 141.155 27.4591 141.128 24.6223C141.142 24.0545 141.001 23.4935 140.72 22.9996C140.44 22.5057 140.031 22.0975 139.536 21.8188C139.042 21.5401 138.481 21.4014 137.913 21.4175C137.346 21.4336 136.794 21.604 136.316 21.9103C134.993 22.6751 133.682 23.4562 132.371 24.2264L114.195 34.928L93.0058 47.3598C89.2666 49.5565 85.4732 51.737 81.7503 53.95C80.4969 54.6881 79.4605 55.7445 78.7459 57.0121C78.0313 58.2798 77.6638 59.7139 77.6805 61.1693C77.6805 62.1456 77.6805 63.122 77.6805 64.0983V179.754C77.6805 179.939 77.6805 180.129 77.6805 180.297C77.6863 180.782 77.8053 181.259 78.028 181.69C78.2507 182.121 78.5709 182.493 78.9631 182.779C79.3553 183.064 79.8086 183.253 80.2868 183.332C80.7651 183.41 81.2551 183.376 81.7177 183.231C82.742 182.89 83.7066 182.119 84.6278 181.566L87.7709 179.673L94.8158 175.453C105.062 169.306 115.316 163.17 125.58 157.044L136.543 150.497C136.825 150.335 136.554 149.863 136.256 150.042Z" fill="#EBEBEB"/>
<path d="M81.799 54.221L136.652 22.0621C137.078 21.8134 137.562 21.6814 138.055 21.6794C138.548 21.6774 139.033 21.8055 139.461 22.0507C139.889 22.2959 140.245 22.6497 140.493 23.0764C140.741 23.5031 140.872 23.9876 140.873 24.4812V29.6611L77.9677 66.002V60.9468C77.965 59.5887 78.3172 58.2535 78.9893 57.0737C79.6614 55.8939 80.63 54.9105 81.799 54.221Z" fill="#EBEBEB"/>
<path d="M119.484 82.4569C125.046 72.814 125.046 62.3912 119.484 59.177C113.922 55.9627 104.904 61.1741 99.3413 70.817C93.7789 80.4598 93.7789 90.8826 99.3412 94.0969C104.904 97.3112 113.922 92.0998 119.484 82.4569Z" fill="#08509F"/>
<path opacity="0.5" d="M119.484 82.4569C125.046 72.814 125.046 62.3912 119.484 59.177C113.922 55.9627 104.904 61.1741 99.3413 70.817C93.7789 80.4598 93.7789 90.8826 99.3412 94.0969C104.904 97.3112 113.922 92.0998 119.484 82.4569Z" fill="#084E9B"/>
<path d="M106.857 76.6982C106.773 76.6982 106.69 76.6817 106.613 76.6495C106.535 76.6173 106.464 76.5702 106.405 76.5108C106.346 76.4513 106.299 76.3808 106.266 76.3031C106.234 76.2255 106.218 76.1423 106.218 76.0582V71.8438C106.265 70.8438 106.55 69.8697 107.049 69.0025C107.549 68.1354 108.249 67.4005 109.09 66.8591C109.43 66.5782 109.849 66.4081 110.288 66.3714C110.728 66.3347 111.168 66.4332 111.551 66.6537C111.933 66.8742 112.239 67.2062 112.428 67.6054C112.616 68.0046 112.679 68.4519 112.607 68.8877V73.1075C112.607 73.2773 112.54 73.4401 112.42 73.5601C112.3 73.6801 112.137 73.7476 111.967 73.7476C111.798 73.7476 111.635 73.6801 111.515 73.5601C111.395 73.4401 111.328 73.2773 111.328 73.1075V68.866C111.413 68.654 111.418 68.4185 111.342 68.2032C111.267 67.9878 111.116 67.8071 110.917 67.6946C110.719 67.5821 110.486 67.5453 110.263 67.5911C110.04 67.637 109.84 67.7623 109.702 67.9439C109.057 68.3751 108.52 68.9492 108.133 69.6218C107.746 70.2944 107.519 71.0473 107.47 71.822V76.0365C107.475 76.2054 107.414 76.3697 107.3 76.4937C107.185 76.6176 107.026 76.6912 106.857 76.6982Z" fill="#05E790"/>
<path d="M114.574 70.3901C114.424 70.328 114.261 70.3048 114.1 70.3229C113.939 70.3409 113.785 70.3995 113.653 70.4932L105.134 75.4182C104.76 75.6529 104.451 75.9773 104.234 76.362C103.893 76.9157 103.706 77.5504 103.692 78.2007V85.5828C103.673 85.7897 103.701 85.9983 103.775 86.1928C103.848 86.3873 103.964 86.5627 104.115 86.7055C104.161 86.7416 104.212 86.7709 104.267 86.7923C104.411 86.8461 104.566 86.8643 104.719 86.8454C104.872 86.8265 105.018 86.7711 105.145 86.6839L113.653 81.7534C114.097 81.4364 114.46 81.0194 114.713 80.5361C114.966 80.0527 115.102 79.5166 115.11 78.9709V71.578C115.14 71.3496 115.106 71.1174 115.011 70.9076C114.917 70.6977 114.765 70.5185 114.574 70.3901Z" fill="#05E790"/>
<path d="M110.401 78.0868L111.225 80.4517L108.337 82.1168L109.057 79.1987L109.16 78.7865C108.673 78.7865 108.337 78.4231 108.337 77.7614C108.34 77.4919 108.386 77.2248 108.472 76.9695C108.697 76.2646 109.158 75.6591 109.778 75.2555C110.575 74.7944 111.225 75.1687 111.225 76.0908C111.185 76.8306 110.895 77.5347 110.401 78.0868Z" fill="#084F9C"/>
<path d="M109.036 79.1716L109.139 78.7593C108.651 78.7593 108.315 78.3959 108.315 77.7342C108.319 77.4648 108.364 77.1976 108.45 76.9423L110.401 78.0868L111.225 80.4516L109.036 79.1716Z" fill="#023265"/>
<path d="M130.452 103.938L88.3996 128.221C86.6601 129.224 85.2511 128.156 85.2511 125.84V119.467C85.2511 117.145 86.6601 114.449 88.3996 113.446L130.452 89.1626C132.192 88.1592 133.601 89.2223 133.601 91.5438V97.917C133.574 100.238 132.165 102.929 130.452 103.938Z" fill="#08509F"/>
<path d="M95.9592 112.871H95.1464V119.613H95.9592V112.871Z" fill="#FAFAFA"/>
<path d="M98.6219 114.798L92.7616 118.169L93.168 118.877L99.0284 115.506L98.6219 114.798Z" fill="#FAFAFA"/>
<path d="M93.69 114.705L93.2836 115.41L97.4088 117.794L97.8152 117.089L93.69 114.705Z" fill="#FAFAFA"/>
<path d="M97.8408 112.089L93.7141 119.276L94.4213 119.683L98.548 112.496L97.8408 112.089Z" fill="#FAFAFA"/>
<path d="M109.816 105.321H109.003V112.063H109.816V105.321Z" fill="#FAFAFA"/>
<path d="M112.119 106.666L106.285 110.037L106.692 110.741L112.525 107.37L112.119 106.666Z" fill="#FAFAFA"/>
<path d="M107.552 107.153L107.146 107.857L111.271 110.241L111.677 109.536L107.552 107.153Z" fill="#FAFAFA"/>
<path d="M111.668 104.479L107.541 111.666L108.249 112.072L112.375 104.886L111.668 104.479Z" fill="#FAFAFA"/>
<path d="M123.673 97.765H122.86V104.507H123.673V97.765Z" fill="#FAFAFA"/>
<path d="M126.447 99.6269L120.587 102.998L120.993 103.706L126.854 100.335L126.447 99.6269Z" fill="#FAFAFA"/>
<path d="M121.409 99.5975L121.003 100.302L125.128 102.686L125.535 101.981L121.409 99.5975Z" fill="#FAFAFA"/>
<path d="M124.979 97.3494L120.852 104.503L121.556 104.91L125.683 97.7562L124.979 97.3494Z" fill="#FAFAFA"/>
<path d="M131.672 112.714C132.213 112.714 132.49 113.554 132.49 114.39V120.763C132.49 122.699 131.292 125.026 129.883 125.845L87.8577 150.128C87.6444 150.265 87.4002 150.345 87.1478 150.362C86.6059 150.362 86.3349 149.521 86.3349 148.686V142.312C86.3349 140.376 87.5271 138.049 88.9415 137.23L130.994 112.947C131.206 112.811 131.448 112.731 131.699 112.714M131.699 111.629C131.257 111.645 130.828 111.776 130.452 112.008L88.3996 136.292C86.6601 137.295 85.2511 139.991 85.2511 142.312V148.686C85.2511 150.41 86.0315 151.446 87.1478 151.446C87.591 151.431 88.0225 151.3 88.3996 151.067L130.452 126.783C132.192 125.78 133.601 123.084 133.601 120.763V114.39C133.601 112.665 132.815 111.629 131.699 111.629Z" fill="#08509F"/>
<path d="M99.9424 140.416V133.413L102.338 132.035C102.798 131.77 103.19 131.646 103.514 131.662C103.839 131.677 104.086 131.814 104.256 132.074C104.427 132.331 104.513 132.692 104.513 133.157C104.513 133.622 104.426 134.082 104.253 134.538C104.079 134.994 103.827 135.415 103.497 135.804C103.169 136.191 102.771 136.518 102.305 136.787L100.778 137.665V136.478L102.097 135.719C102.345 135.577 102.548 135.411 102.708 135.221C102.87 135.027 102.991 134.82 103.07 134.599C103.151 134.375 103.191 134.147 103.191 133.917C103.191 133.685 103.151 133.505 103.07 133.378C102.991 133.248 102.87 133.182 102.708 133.179C102.546 133.175 102.341 133.244 102.092 133.387L101.226 133.885V139.678L99.9424 140.416ZM108.64 130.424C108.617 130.161 108.515 130.006 108.335 129.956C108.155 129.907 107.911 129.971 107.603 130.148C107.393 130.269 107.217 130.405 107.072 130.556C106.928 130.705 106.817 130.861 106.74 131.024C106.665 131.186 106.628 131.342 106.628 131.492C106.624 131.62 106.646 131.716 106.696 131.782C106.747 131.845 106.817 131.886 106.906 131.903C106.995 131.918 107.098 131.917 107.215 131.9C107.331 131.881 107.456 131.851 107.588 131.809L108.134 131.645C108.398 131.561 108.641 131.513 108.863 131.499C109.084 131.486 109.276 131.516 109.438 131.589C109.6 131.662 109.725 131.786 109.814 131.961C109.905 132.134 109.952 132.366 109.954 132.657C109.952 133.087 109.857 133.513 109.669 133.936C109.483 134.355 109.215 134.752 108.863 135.128C108.513 135.5 108.091 135.828 107.597 136.112C107.107 136.394 106.68 136.553 106.316 136.589C105.955 136.624 105.672 136.53 105.469 136.307C105.267 136.081 105.161 135.719 105.151 135.221L106.394 134.507C106.407 134.733 106.466 134.896 106.568 134.994C106.673 135.089 106.812 135.126 106.986 135.106C107.162 135.082 107.361 135.007 107.582 134.88C107.8 134.754 107.988 134.609 108.148 134.444C108.31 134.278 108.436 134.105 108.525 133.924C108.614 133.742 108.658 133.567 108.658 133.399C108.658 133.241 108.618 133.133 108.537 133.072C108.458 133.01 108.341 132.986 108.187 133C108.035 133.012 107.848 133.051 107.627 133.117L106.966 133.305C106.454 133.456 106.05 133.464 105.753 133.329C105.457 133.194 105.31 132.867 105.312 132.349C105.31 131.926 105.407 131.499 105.605 131.068C105.805 130.637 106.078 130.232 106.426 129.854C106.774 129.476 107.169 129.16 107.612 128.905C108.062 128.646 108.456 128.509 108.792 128.493C109.13 128.477 109.392 128.573 109.58 128.782C109.768 128.991 109.865 129.302 109.871 129.716L108.64 130.424ZM112.184 133.375L110.446 127.37L111.849 126.564L112.853 130.852L112.904 130.823L114.013 125.319L115.213 124.629L116.319 128.869L116.372 128.838L117.377 123.384L118.779 122.577L117.042 130.58L115.791 131.3L114.635 127.386L114.588 127.413L113.434 132.655L112.184 133.375ZM121.618 127.948L119.466 129.186V122.182L121.636 120.934C122.247 120.583 122.772 120.421 123.213 120.447C123.654 120.472 123.993 120.677 124.23 121.063C124.469 121.447 124.588 122.003 124.588 122.731C124.588 123.46 124.469 124.156 124.23 124.818C123.993 125.479 123.652 126.077 123.207 126.613C122.764 127.148 122.235 127.593 121.618 127.948ZM120.75 127.179L121.565 126.71C121.944 126.492 122.263 126.23 122.522 125.926C122.783 125.619 122.979 125.264 123.109 124.86C123.242 124.454 123.308 123.989 123.308 123.467C123.308 122.95 123.242 122.565 123.109 122.313C122.979 122.059 122.784 121.93 122.525 121.924C122.266 121.918 121.947 122.024 121.568 122.242L120.75 122.713V127.179Z" fill="#08509F"/>
<path d="M193.526 40.2867C193.551 40.7158 193.677 41.133 193.895 41.5036C194.112 41.8742 194.415 42.1877 194.777 42.4183C195.471 42.8088 196.029 42.4888 196.029 41.7077C196.004 41.2786 195.878 40.8615 195.66 40.4908C195.443 40.1202 195.14 39.8067 194.777 39.5761C194.089 39.1856 193.526 39.5002 193.526 40.2867Z" fill="#7B8286"/>
<path d="M176.743 45.3364C175.641 45.2997 174.567 44.9783 173.627 44.4035L169.654 42.1525C169.621 42.1362 169.592 42.1133 169.568 42.0853C169.544 42.0573 169.526 42.0246 169.515 41.9894C169.504 41.9542 169.501 41.9171 169.505 41.8805C169.509 41.8438 169.52 41.8083 169.538 41.7762C169.556 41.7441 169.581 41.716 169.61 41.6936C169.639 41.6713 169.673 41.6551 169.708 41.6462C169.744 41.6373 169.781 41.6357 169.818 41.6416C169.854 41.6475 169.889 41.6608 169.92 41.6806L173.892 43.9316C175.61 44.9025 177.198 45.0598 178.374 44.3764C179.55 43.693 180.162 42.2881 180.162 40.3843C180.162 38.2852 180.894 36.7014 182.216 35.9258C183.538 35.1501 185.354 35.2966 187.239 36.3651L193.661 40.0046C193.723 40.0409 193.767 40.0996 193.787 40.1683C193.806 40.2371 193.798 40.3106 193.764 40.3735C193.729 40.4359 193.67 40.4819 193.601 40.5012C193.532 40.5205 193.458 40.5116 193.396 40.4765L186.974 36.8641C185.261 35.8932 183.668 35.7359 182.492 36.4248C181.316 37.1136 180.704 38.513 180.704 40.4114C180.704 42.5159 179.972 44.0997 178.65 44.87C178.067 45.1923 177.409 45.3533 176.743 45.3364Z" fill="#7B8286"/>
<path d="M168.012 40.9377C168.031 41.2846 168.133 41.6218 168.31 41.921C168.486 42.2202 168.731 42.4726 169.026 42.6571C169.567 42.9771 170.039 42.7168 170.039 42.0822C170.02 41.7353 169.918 41.3981 169.742 41.0989C169.565 40.7997 169.32 40.5472 169.026 40.3628C168.467 40.0427 168.012 40.3031 168.012 40.9377Z" fill="#7B8286"/>
<path d="M232.11 35.1719L205.556 20.1257C205.277 19.9208 204.94 19.8103 204.594 19.8103C204.248 19.8103 203.911 19.9208 203.632 20.1257L201.335 21.7095L202.901 23.6458V51.65C202.901 53.6081 204.093 55.8807 205.556 56.7323L231.443 71.3771L231.563 73.4599L233.98 71.8002C234.258 71.5402 234.473 71.2197 234.609 70.8633C234.744 70.5068 234.796 70.1241 234.76 69.7445V40.2542C234.771 38.2961 233.579 36.0234 232.11 35.1719Z" fill="#08509F"/>
<path opacity="0.3" d="M232.11 35.1719L205.556 20.1257C205.277 19.9208 204.94 19.8103 204.594 19.8103C204.248 19.8103 203.911 19.9208 203.632 20.1257L201.335 21.7095L202.901 23.6458V51.65C202.901 53.6081 204.093 55.8807 205.556 56.7323L231.443 71.3771L231.563 73.4599L233.98 71.8002C234.258 71.5402 234.473 71.2197 234.609 70.8633C234.744 70.5068 234.796 70.1241 234.76 69.7445V40.2542C234.771 38.2961 233.579 36.0234 232.11 35.1719Z" fill="black"/>
<path d="M229.856 73.3299L203.302 58.2837C201.833 57.4375 200.646 55.1595 200.646 53.2014V23.6948C200.646 21.7313 201.833 20.8309 203.302 21.6825L229.856 36.7287C231.324 37.5748 232.511 39.8529 232.511 41.811V71.323C232.511 73.2811 231.324 74.1815 229.856 73.3299Z" fill="#08509F"/>
<path d="M224.279 47.7937C224.219 47.7945 224.16 47.7753 224.112 47.7389C224.064 47.7026 224.029 47.6512 224.014 47.593C223.448 45.5003 222.573 43.504 221.418 41.67C221.379 41.6095 221.366 41.5362 221.381 41.466C221.397 41.3959 221.439 41.3346 221.499 41.2957C221.529 41.276 221.563 41.2627 221.598 41.2564C221.634 41.2501 221.67 41.251 221.705 41.2591C221.74 41.2672 221.773 41.2824 221.802 41.3036C221.831 41.3248 221.855 41.3516 221.873 41.3825C223.059 43.2614 223.958 45.3071 224.539 47.452C224.556 47.5217 224.546 47.5952 224.511 47.6577C224.476 47.7202 224.418 47.7669 224.35 47.7883L224.279 47.7937Z" fill="white"/>
<path d="M224.886 53.3099C224.814 53.3044 224.747 53.2705 224.699 53.2157C224.651 53.1609 224.627 53.0896 224.632 53.017C224.632 52.7296 224.664 52.4258 224.664 52.1166C224.661 51.1893 224.58 50.2639 224.42 49.3504C224.408 49.2785 224.425 49.2046 224.467 49.1451C224.509 49.0856 224.573 49.0453 224.645 49.0331C224.717 49.0209 224.791 49.0377 224.85 49.0799C224.91 49.1221 224.95 49.1863 224.962 49.2582C225.128 50.2021 225.213 51.1583 225.217 52.1166C225.217 52.4367 225.217 52.7513 225.184 53.055C225.182 53.0914 225.172 53.1268 225.155 53.1594C225.139 53.1919 225.116 53.2208 225.088 53.2445C225.061 53.2682 225.029 53.2862 224.994 53.2974C224.959 53.3086 224.923 53.3129 224.886 53.3099Z" fill="white"/>
<path d="M208.309 44.3058C208.242 44.306 208.178 44.281 208.129 44.2358C208.079 44.1906 208.049 44.1284 208.044 44.0617C208 43.5899 207.979 43.118 207.979 42.6623C207.979 40.0317 208.688 37.8621 209.978 36.5441C210.003 36.5188 210.032 36.4987 210.065 36.485C210.098 36.4713 210.133 36.4643 210.168 36.4643C210.203 36.4643 210.238 36.4713 210.271 36.485C210.303 36.4987 210.333 36.5188 210.358 36.5441C210.383 36.5693 210.403 36.5993 210.417 36.6323C210.431 36.6654 210.438 36.7008 210.438 36.7366C210.438 36.7724 210.431 36.8079 210.417 36.8409C210.403 36.874 210.383 36.904 210.358 36.9292C209.171 38.1441 208.515 40.1836 208.515 42.6678C208.515 43.1071 208.515 43.5627 208.575 44.0184C208.578 44.0537 208.575 44.0894 208.565 44.1235C208.554 44.1575 208.537 44.1891 208.515 44.2164C208.492 44.2437 208.464 44.2662 208.432 44.2825C208.401 44.2988 208.366 44.3085 208.331 44.3112L208.309 44.3058Z" fill="white"/>
<path d="M220.296 39.9179C220.256 39.9184 220.216 39.9099 220.179 39.893C220.143 39.8761 220.111 39.8512 220.085 39.8203C219.081 38.5406 217.848 37.4591 216.449 36.631C214.649 35.6112 212.959 35.416 211.571 36.0886C211.507 36.1183 211.433 36.1213 211.366 36.0969C211.299 36.0725 211.244 36.0228 211.214 35.9584C211.198 35.926 211.189 35.8909 211.187 35.855C211.185 35.8192 211.191 35.7833 211.203 35.7495C211.215 35.7157 211.234 35.6846 211.258 35.6581C211.282 35.6316 211.311 35.6101 211.344 35.595C212.904 34.8736 214.763 35.0526 216.725 36.1862C218.183 37.0495 219.469 38.1749 220.518 39.5057C220.563 39.5612 220.584 39.6322 220.577 39.7033C220.57 39.7744 220.535 39.8398 220.48 39.8854C220.425 39.9178 220.359 39.9293 220.296 39.9179Z" fill="white"/>
<path d="M210.179 44.5174C210.109 44.5175 210.041 44.4904 209.991 44.4419C209.94 44.3933 209.911 44.3271 209.908 44.2571C209.908 44.0889 209.908 43.9208 209.908 43.7526C209.908 41.8271 210.379 40.2542 211.273 39.2073C211.296 39.1798 211.324 39.1571 211.355 39.1406C211.386 39.124 211.421 39.1139 211.456 39.1109C211.492 39.1078 211.527 39.1119 211.561 39.1229C211.595 39.1339 211.626 39.1515 211.653 39.1748C211.707 39.222 211.741 39.2888 211.747 39.3607C211.753 39.4327 211.731 39.5042 211.685 39.5599C210.878 40.5091 210.45 41.9573 210.45 43.7526C210.45 43.9099 210.45 44.0727 210.45 44.23C210.451 44.2656 210.445 44.3011 210.433 44.3346C210.421 44.3681 210.402 44.3988 210.378 44.425C210.354 44.4512 210.325 44.4723 210.292 44.4873C210.26 44.5022 210.225 44.5106 210.19 44.512L210.179 44.5174Z" fill="white"/>
<path d="M212.281 38.9308C212.222 38.9314 212.164 38.9123 212.116 38.8765C212.068 38.8407 212.034 38.7901 212.018 38.7327C212.002 38.6752 212.005 38.6141 212.027 38.5587C212.049 38.5033 212.089 38.4568 212.14 38.4264C212.835 38.0131 213.648 37.8451 214.449 37.9491C214.52 37.956 214.585 37.9906 214.631 38.0454C214.677 38.1002 214.699 38.1709 214.693 38.242C214.685 38.3135 214.649 38.379 214.593 38.4245C214.538 38.4701 214.466 38.4922 214.395 38.486C213.712 38.4046 213.022 38.5535 212.433 38.9091C212.385 38.9292 212.333 38.9367 212.281 38.9308Z" fill="white"/>
<path d="M224.279 56.7974C224.225 56.7975 224.172 56.7816 224.127 56.7517C224.081 56.7218 224.046 56.6792 224.025 56.6292L223.71 55.8428C223.08 54.3219 222.747 52.6942 222.729 51.0479C222.729 46.4484 219.911 41.1274 216.449 39.1639C216.418 39.1465 216.39 39.123 216.369 39.0949C216.347 39.0668 216.331 39.0346 216.322 39.0002C216.313 38.9658 216.311 38.9299 216.316 38.8947C216.321 38.8594 216.333 38.8256 216.351 38.7951C216.368 38.7636 216.391 38.7359 216.419 38.7135C216.447 38.6912 216.479 38.6747 216.513 38.6651C216.548 38.6555 216.584 38.6529 216.619 38.6575C216.655 38.6622 216.689 38.6739 216.72 38.692C220.329 40.7423 223.271 46.2856 223.271 51.0262C223.285 52.6096 223.605 54.1753 224.214 55.6366L224.529 56.4231C224.543 56.4558 224.55 56.491 224.55 56.5266C224.551 56.5622 224.544 56.5975 224.53 56.6304C224.516 56.6633 224.496 56.6931 224.471 56.7181C224.445 56.743 224.415 56.7626 224.382 56.7757C224.35 56.7902 224.315 56.7976 224.279 56.7974Z" fill="white"/>
<path d="M211.837 53.6787C211.781 53.6786 211.727 53.6614 211.681 53.6294C211.636 53.5974 211.601 53.5521 211.582 53.4997C210.707 50.9367 210.141 48.2781 209.897 45.5806C209.894 45.5445 209.898 45.5082 209.909 45.4739C209.921 45.4395 209.939 45.4077 209.962 45.3804C209.986 45.3531 210.015 45.3309 210.048 45.3149C210.08 45.299 210.115 45.2898 210.151 45.2877C210.223 45.286 210.292 45.3114 210.345 45.3587C210.398 45.4059 210.432 45.4717 210.439 45.5426C210.67 48.189 211.215 50.7984 212.064 53.3152C212.077 53.3487 212.083 53.3843 212.082 53.4201C212.081 53.4559 212.072 53.4911 212.057 53.5235C212.042 53.5559 212.02 53.5849 211.994 53.6088C211.967 53.6327 211.936 53.6509 211.902 53.6624C211.881 53.6707 211.859 53.6761 211.837 53.6787Z" fill="white"/>
<path d="M222.686 58.6253C222.631 58.6265 222.577 58.6104 222.531 58.5793C222.485 58.5482 222.451 58.5036 222.431 58.4517L221.705 56.4991C220.973 54.5932 220.579 52.5742 220.54 50.5327V48.401C220.54 45.868 218.725 42.7818 216.492 41.518C215.452 40.9267 214.487 40.8237 213.782 41.2359C213.078 41.6481 212.699 42.4997 212.699 43.655V45.5426C212.758 48.6088 213.371 51.6391 214.509 54.4868L215.403 56.8191C215.416 56.8525 215.422 56.8883 215.421 56.9242C215.42 56.9601 215.412 56.9955 215.398 57.0283C215.383 57.0611 215.362 57.0906 215.336 57.1152C215.31 57.1399 215.279 57.159 215.246 57.1717C215.179 57.1964 215.105 57.1937 215.04 57.1643C214.975 57.1348 214.924 57.081 214.899 57.0144L214.005 54.682C212.85 51.7706 212.229 48.6745 212.173 45.5426V43.6604C212.173 42.3044 212.644 41.2793 213.512 40.7749C214.379 40.2704 215.544 40.3626 216.763 41.0515C219.142 42.4021 221.098 45.6999 221.098 48.4065V50.5381C221.136 52.5151 221.519 54.4702 222.231 56.3147L222.952 58.2619C222.965 58.295 222.971 58.3303 222.97 58.3658C222.969 58.4013 222.961 58.4363 222.946 58.4687C222.932 58.501 222.911 58.5301 222.885 58.5542C222.859 58.5783 222.828 58.597 222.795 58.609L222.686 58.6253Z" fill="white"/>
<path d="M220.296 59.401C220.238 59.4013 220.182 59.3831 220.135 59.3489C220.088 59.3148 220.054 59.2665 220.036 59.2111L219.657 57.9311C218.966 55.6843 218.601 53.3498 218.573 50.9992V47.7122C218.531 46.9677 218.312 46.2439 217.936 45.6006C217.559 44.9574 217.034 44.4132 216.405 44.0131C216.209 43.8693 215.979 43.7796 215.737 43.7529C215.496 43.7263 215.251 43.7636 215.029 43.8612C214.838 43.9995 214.688 44.1858 214.593 44.4011C214.498 44.6163 214.461 44.853 214.487 45.087C214.487 48.7537 215.603 52.979 217.625 56.9873L218.389 58.5006C218.405 58.5327 218.414 58.5675 218.417 58.6033C218.419 58.639 218.415 58.6749 218.404 58.7089C218.392 58.7429 218.374 58.7744 218.351 58.8014C218.327 58.8285 218.299 58.8507 218.267 58.8667C218.235 58.8828 218.2 58.8923 218.164 58.8948C218.128 58.8974 218.093 58.8929 218.059 58.8815C218.025 58.8702 217.993 58.8523 217.966 58.8288C217.939 58.8053 217.917 58.7767 217.901 58.7447L217.142 57.2314C215.078 53.1471 213.945 48.835 213.945 45.087C213.915 44.7581 213.973 44.427 214.114 44.1283C214.255 43.8297 214.474 43.5744 214.747 43.3893C215.051 43.2426 215.388 43.1794 215.724 43.2061C216.06 43.2328 216.383 43.3484 216.66 43.5412C217.37 43.9916 217.964 44.6048 218.391 45.3301C218.817 46.0554 219.066 46.8719 219.115 47.7122V51.01C219.139 53.3092 219.495 55.5927 220.172 57.7901L220.551 59.0647C220.562 59.0989 220.565 59.1349 220.562 59.1705C220.558 59.2062 220.548 59.2407 220.53 59.2722C220.513 59.3036 220.49 59.3312 220.462 59.3533C220.434 59.3754 220.401 59.3917 220.367 59.401C220.343 59.4055 220.32 59.4055 220.296 59.401Z" fill="white"/>
<path d="M217.256 53.6787C217.195 53.678 217.135 53.6568 217.087 53.6185C217.039 53.5802 217.005 53.5269 216.991 53.4671L216.741 52.3064C216.503 51.1903 216.383 50.0522 216.384 48.911V45.8573C216.384 45.7853 216.412 45.7163 216.463 45.6655C216.514 45.6146 216.583 45.5861 216.655 45.5861C216.726 45.5861 216.795 45.6146 216.846 45.6655C216.897 45.7163 216.926 45.7853 216.926 45.8573V48.911C216.929 50.0048 217.045 51.0955 217.272 52.1654L217.522 53.3261C217.53 53.3607 217.531 53.3965 217.524 53.4315C217.518 53.4664 217.505 53.4998 217.486 53.5296C217.467 53.5594 217.442 53.5851 217.413 53.6051C217.383 53.6251 217.35 53.6391 217.316 53.6461L217.256 53.6787Z" fill="white"/>
<path d="M208.9 47.7936C208.833 47.7928 208.768 47.7676 208.718 47.7227C208.668 47.6778 208.637 47.6162 208.629 47.5496L208.472 45.9658C208.465 45.8941 208.488 45.8228 208.533 45.7671C208.579 45.7114 208.644 45.6756 208.715 45.6674C208.751 45.6629 208.787 45.6657 208.822 45.6757C208.857 45.6857 208.889 45.7026 208.917 45.7254C208.945 45.7483 208.968 45.7765 208.984 45.8085C209.001 45.8405 209.011 45.8756 209.013 45.9115L209.171 47.4953C209.174 47.531 209.171 47.567 209.161 47.6014C209.151 47.6357 209.134 47.6677 209.111 47.6954C209.088 47.7231 209.06 47.7461 209.029 47.763C208.997 47.7798 208.962 47.7903 208.927 47.7936H208.9Z" fill="white"/>
<path d="M232.11 85.4309L205.556 70.3793C205.277 70.1744 204.94 70.0639 204.594 70.0639C204.248 70.0639 203.911 70.1744 203.632 70.3793L201.335 71.9631L202.901 73.8994V101.904C202.901 103.862 204.093 106.134 205.556 106.986L231.443 121.631L231.563 123.714L233.98 122.059C234.258 121.798 234.474 121.477 234.609 121.119C234.744 120.762 234.796 120.378 234.76 119.998V90.4915C234.771 88.5497 233.579 86.277 232.11 85.4309Z" fill="#08509F"/>
<path opacity="0.3" d="M232.11 85.4309L205.556 70.3793C205.277 70.1744 204.94 70.0639 204.594 70.0639C204.248 70.0639 203.911 70.1744 203.632 70.3793L201.335 71.9631L202.901 73.8994V101.904C202.901 103.862 204.093 106.134 205.556 106.986L231.443 121.631L231.563 123.714L233.98 122.059C234.258 121.798 234.474 121.477 234.609 121.119C234.744 120.762 234.796 120.378 234.76 119.998V90.4915C234.771 88.5497 233.579 86.277 232.11 85.4309Z" fill="black"/>
<path d="M229.856 123.583L203.302 108.537C201.833 107.691 200.646 105.418 200.646 103.455V73.9482C200.646 71.9901 201.833 71.0897 203.302 71.9359L229.856 86.9821C231.324 87.8336 232.511 90.1063 232.511 92.0644V121.576C232.511 123.534 231.324 124.435 229.856 123.583Z" fill="#08509F"/>
<path d="M206.564 82.1818C206.492 82.1818 206.423 82.1532 206.372 82.1023C206.322 82.0515 206.293 81.9825 206.293 81.9106V80.0827C206.292 79.9011 206.338 79.7225 206.429 79.5651C206.519 79.4078 206.65 79.2775 206.808 79.1877C206.972 79.0892 207.159 79.0371 207.35 79.0371C207.541 79.0371 207.728 79.0892 207.892 79.1877L209.805 80.2725C209.868 80.3077 209.915 80.3667 209.934 80.4364C209.954 80.506 209.946 80.5808 209.91 80.644C209.875 80.7073 209.816 80.754 209.747 80.7739C209.677 80.7937 209.602 80.7851 209.539 80.7498L207.621 79.665C207.538 79.6174 207.445 79.5924 207.35 79.5924C207.255 79.5924 207.161 79.6174 207.079 79.665C207.004 79.707 206.942 79.7685 206.899 79.843C206.856 79.9174 206.834 80.0021 206.835 80.0881V81.916C206.834 81.987 206.804 82.0546 206.754 82.1043C206.703 82.1539 206.635 82.1818 206.564 82.1818Z" fill="white"/>
<path d="M209.642 107.333C209.597 107.332 209.552 107.321 209.512 107.3L207.724 106.286C207.296 106.04 206.942 105.685 206.695 105.257C206.449 104.829 206.319 104.344 206.32 103.851V102.164C206.32 102.092 206.349 102.023 206.4 101.972C206.45 101.921 206.519 101.893 206.591 101.893C206.663 101.893 206.732 101.921 206.783 101.972C206.834 102.023 206.862 102.092 206.862 102.164V103.851C206.864 104.251 206.972 104.643 207.174 104.988C207.377 105.333 207.668 105.618 208.017 105.814L209.805 106.828C209.856 106.859 209.895 106.905 209.918 106.959C209.94 107.014 209.944 107.075 209.928 107.132C209.913 107.189 209.879 107.24 209.833 107.276C209.786 107.312 209.728 107.332 209.669 107.333H209.642Z" fill="white"/>
<path d="M225.829 116.396C225.639 116.4 225.452 116.351 225.287 116.255L223.374 115.171C223.312 115.135 223.266 115.077 223.247 115.008C223.227 114.938 223.236 114.864 223.271 114.802C223.308 114.74 223.366 114.695 223.435 114.676C223.504 114.657 223.577 114.665 223.64 114.699L225.558 115.784C225.641 115.831 225.734 115.856 225.829 115.856C225.924 115.856 226.018 115.831 226.1 115.784C226.175 115.742 226.237 115.68 226.28 115.606C226.323 115.531 226.345 115.446 226.344 115.36V113.533C226.344 113.461 226.373 113.392 226.423 113.341C226.474 113.29 226.543 113.261 226.615 113.261C226.687 113.261 226.756 113.29 226.807 113.341C226.857 113.392 226.886 113.461 226.886 113.533V115.36C226.887 115.541 226.84 115.719 226.749 115.875C226.659 116.032 226.528 116.161 226.371 116.25C226.207 116.347 226.02 116.398 225.829 116.396Z" fill="white"/>
<path d="M226.604 93.545C226.532 93.545 226.463 93.5164 226.413 93.4655C226.362 93.4147 226.333 93.3457 226.333 93.2738V91.5869C226.332 91.1874 226.224 90.7954 226.021 90.4513C225.818 90.1072 225.528 89.8233 225.179 89.6288L223.391 88.6145C223.328 88.5782 223.282 88.5185 223.262 88.4485C223.243 88.3785 223.252 88.3037 223.288 88.2403C223.305 88.2093 223.328 88.182 223.357 88.1602C223.385 88.1385 223.417 88.1225 223.451 88.1134C223.486 88.1043 223.521 88.1022 223.557 88.1072C223.592 88.1123 223.626 88.1243 223.656 88.1426L225.444 89.1569C225.876 89.3994 226.236 89.752 226.487 90.1788C226.738 90.6056 226.872 91.0915 226.875 91.5869V93.2738C226.875 93.3457 226.847 93.4147 226.796 93.4655C226.745 93.5164 226.676 93.545 226.604 93.545Z" fill="white"/>
<path d="M208.965 91.3048C209.025 94.3847 209.466 97.4454 210.276 100.417C212.335 108.195 220.459 112.974 222.691 107.707C223.74 105.116 224.255 102.339 224.203 99.5439C224.203 94.7707 220.789 88.967 216.584 86.5805C212.281 84.1451 208.905 86.4069 208.965 91.3048Z" fill="white"/>
<path d="M216.313 95.6495V100.759L214.097 99.0992L216.313 95.6495Z" fill="#E0E0E0"/>
<path d="M212.189 92.5958C212.204 92.8462 212.277 93.0897 212.403 93.3065C212.529 93.5233 212.705 93.7072 212.916 93.8433C213.322 94.0711 213.647 93.8867 213.647 93.4257C213.633 93.1752 213.559 92.9318 213.432 92.7158C213.305 92.4997 213.128 92.3172 212.916 92.1836C212.514 91.9558 212.189 92.1402 212.189 92.5958Z" fill="#E0E0E0"/>
<path d="M218.974 96.4904C218.989 96.7405 219.064 96.9834 219.191 97.1992C219.318 97.4151 219.494 97.5978 219.705 97.7325C220.112 97.9603 220.437 97.7759 220.437 97.3202C220.423 97.0691 220.349 96.8249 220.222 96.608C220.095 96.3911 219.918 96.2076 219.705 96.0727C219.326 95.8449 218.974 96.0293 218.974 96.4904Z" fill="#E0E0E0"/>
<path d="M215.582 103.26L218.058 102.842C218.058 102.842 217.532 105.489 215.582 103.26Z" fill="#E0E0E0"/>
<path d="M193.526 87.698C193.551 88.1262 193.678 88.5422 193.896 88.9119C194.114 89.2815 194.416 89.5942 194.777 89.8242C195.471 90.2201 196.029 89.9001 196.029 89.1191C196.004 88.6899 195.878 88.2728 195.66 87.9021C195.443 87.5315 195.14 87.218 194.777 86.9874C194.089 86.5915 193.526 86.9115 193.526 87.698Z" fill="#7B8286"/>
<path d="M193.574 88.2892C193.527 88.2888 193.481 88.2777 193.439 88.2566L187.023 84.5954C183.267 82.4692 180.211 77.2676 180.211 73.0097C180.211 68.92 177.279 63.9354 173.675 61.8905L169.654 59.6124C169.592 59.5771 169.546 59.5185 169.527 59.4493C169.507 59.3802 169.516 59.3062 169.551 59.2436C169.568 59.2121 169.591 59.1844 169.619 59.1621C169.647 59.1397 169.679 59.1232 169.714 59.1136C169.748 59.104 169.784 59.1014 169.819 59.1061C169.855 59.1107 169.889 59.1224 169.92 59.1406L173.941 61.4186C177.696 63.5503 180.753 68.7465 180.753 73.0097C180.753 77.094 183.684 82.0787 187.288 84.1235L193.71 87.7685C193.772 87.8038 193.818 87.8625 193.837 87.9316C193.857 88.0007 193.848 88.0747 193.813 88.1373C193.79 88.1814 193.756 88.2187 193.714 88.2453C193.672 88.272 193.624 88.2871 193.574 88.2892Z" fill="#7B8286"/>
<path d="M168.012 58.3107C168.033 58.6579 168.136 58.9952 168.312 59.295C168.488 59.5948 168.733 59.8486 169.026 60.0356C169.567 60.3501 170.039 60.0952 170.039 59.4606C170.018 59.1134 169.915 58.7761 169.739 58.4763C169.563 58.1765 169.319 57.9228 169.026 57.7358C168.467 57.4212 168.012 57.6761 168.012 58.3107Z" fill="#7B8286"/>
<path d="M181.594 113.35L181.594 113.35C182.982 116.756 184.676 122.008 185.76 125.533L185.76 125.534C186.074 126.551 186.082 127.639 185.781 128.661C185.481 129.683 184.886 130.593 184.071 131.278L177.417 136.869L175.186 132.793C176.584 130.939 178.118 129.191 179.774 127.564C179.842 127.497 179.866 127.397 179.836 127.306L175.145 113.233L175.854 108.278C175.954 108.283 176.089 108.294 176.252 108.319C176.636 108.376 177.175 108.508 177.782 108.806C178.991 109.398 180.497 110.657 181.594 113.35Z" fill="#AC6B6A" stroke="#263238" stroke-width="0.5" stroke-linejoin="round"/>
<path d="M184.947 120.576L185.034 120.802C184.271 123.047 182.434 123.992 180.736 124.375C179.878 124.569 179.064 124.615 178.464 124.613C178.164 124.612 177.919 124.599 177.749 124.586C177.717 124.584 177.687 124.581 177.661 124.579L177.659 124.572C177.632 124.455 177.592 124.283 177.542 124.063C177.442 123.624 177.301 122.996 177.138 122.239C176.812 120.726 176.399 118.701 176.048 116.655C175.697 114.606 175.409 112.544 175.332 110.951C175.294 110.153 175.309 109.487 175.391 109.004C175.432 108.762 175.487 108.579 175.552 108.453C175.617 108.326 175.679 108.279 175.725 108.262C176.623 107.926 177.672 108.136 178.667 108.742C179.66 109.346 180.566 110.328 181.154 111.467C181.754 112.631 182.731 114.981 183.561 117.05C183.975 118.082 184.351 119.041 184.624 119.742C184.76 120.092 184.871 120.378 184.947 120.576Z" fill="#08509F" stroke="#263238" stroke-width="0.5" stroke-linejoin="round"/>
<path opacity="0.4" d="M184.947 120.576L185.034 120.802C184.271 123.047 182.434 123.992 180.736 124.375C179.878 124.569 179.064 124.615 178.464 124.613C178.164 124.612 177.919 124.599 177.749 124.586C177.717 124.584 177.687 124.581 177.661 124.579L177.659 124.572C177.632 124.455 177.592 124.283 177.542 124.063C177.442 123.624 177.301 122.996 177.138 122.239C176.812 120.726 176.399 118.701 176.048 116.655C175.697 114.606 175.409 112.544 175.332 110.951C175.294 110.153 175.309 109.487 175.391 109.004C175.432 108.762 175.487 108.579 175.552 108.453C175.617 108.326 175.679 108.279 175.725 108.262C176.623 107.926 177.672 108.136 178.667 108.742C179.66 109.346 180.566 110.328 181.154 111.467C181.754 112.631 182.731 114.981 183.561 117.05C183.975 118.082 184.351 119.041 184.624 119.742C184.76 120.092 184.871 120.378 184.947 120.576Z" fill="white" stroke="#263238" stroke-width="0.5" stroke-linejoin="round"/>
<path d="M173.068 188.573L173.09 188.591L176.424 192.233C176.695 193.274 176.907 194.33 177.058 195.395C177.115 195.978 177.078 196.463 176.85 196.828C176.628 197.182 176.192 197.48 175.316 197.601C174.479 197.717 173.82 197.465 173.217 196.959C172.601 196.442 172.052 195.667 171.452 194.745C170.833 193.795 170.031 193.057 169.342 192.448C169.278 192.391 169.216 192.336 169.154 192.282C168.881 192.041 168.632 191.823 168.421 191.615C168.161 191.359 167.978 191.138 167.879 190.937L167.879 190.937C167.058 189.269 167.149 187.993 167.544 187.163C167.949 186.311 168.657 185.94 169.098 185.986C169.329 186.01 169.692 186.165 170.134 186.422C170.566 186.671 171.039 186.996 171.48 187.32C171.921 187.644 172.327 187.964 172.622 188.204C172.77 188.324 172.89 188.423 172.973 188.493C173.014 188.527 173.046 188.555 173.068 188.573Z" fill="#37474F" stroke="#263238" stroke-width="0.5" stroke-linejoin="round"/>
<path d="M175.927 197.466C175.748 197.523 175.541 197.569 175.3 197.601L175.299 197.601C174.601 197.698 174.026 197.539 173.504 197.188C174.073 197.508 174.713 197.652 175.465 197.549C175.465 197.549 175.465 197.549 175.465 197.549L175.431 197.301C176.113 197.211 176.57 197.017 176.876 196.751C176.815 196.868 176.736 196.975 176.637 197.07C176.475 197.226 176.247 197.363 175.927 197.466Z" fill="#383526" stroke="#263238" stroke-width="0.5" stroke-linejoin="round"/>
<path d="M171.678 191.448C171.673 191.445 171.667 191.442 171.662 191.439C171.658 191.437 171.654 191.434 171.651 191.43C171.648 191.426 171.645 191.422 171.644 191.417C171.642 191.412 171.642 191.407 171.642 191.402C171.643 191.398 171.644 191.393 171.646 191.389C172.217 190.379 173.161 189.634 174.274 189.314C174.282 189.315 174.29 189.317 174.296 189.322C174.305 189.328 174.311 189.337 174.314 189.347C174.316 189.358 174.314 189.369 174.309 189.379C174.304 189.388 174.295 189.395 174.285 189.398L174.358 189.637M171.678 191.448L174.228 189.067C173.04 189.402 172.033 190.194 171.426 191.27C171.408 191.303 171.397 191.34 171.393 191.378C171.39 191.415 171.394 191.453 171.405 191.49C171.416 191.526 171.434 191.56 171.458 191.589C171.482 191.618 171.512 191.643 171.546 191.66C171.586 191.686 171.633 191.699 171.681 191.698C171.734 191.697 171.785 191.682 171.83 191.655C171.875 191.627 171.911 191.588 171.936 191.541C172.468 190.618 173.336 189.936 174.358 189.637M171.678 191.448C171.685 191.448 171.692 191.446 171.699 191.442C171.705 191.438 171.71 191.432 171.714 191.425L171.719 191.416L171.719 191.416C172.284 190.437 173.204 189.714 174.288 189.397L174.358 189.637M171.678 191.448L174.358 189.637" fill="#EBEBEB" stroke="#263238" stroke-width="0.5" stroke-linejoin="round"/>
<path d="M173.173 188.283C173.19 188.278 173.206 188.272 173.222 188.264C173.227 188.261 173.232 188.26 173.238 188.26C173.244 188.26 173.249 188.261 173.254 188.263L173.359 188.037L173.254 188.263C173.259 188.266 173.264 188.269 173.268 188.274L173.461 188.116L173.268 188.274C173.271 188.278 173.274 188.283 173.275 188.289C173.276 188.294 173.276 188.3 173.275 188.306C173.274 188.311 173.271 188.317 173.268 188.321C173.264 188.326 173.259 188.329 173.254 188.331C173.249 188.334 173.243 188.335 173.238 188.335C173.211 188.334 173.185 188.337 173.16 188.345C172.076 188.665 171.157 189.39 170.592 190.369C170.587 190.378 170.582 190.388 170.578 190.398C170.575 190.404 170.571 190.409 170.566 190.412C170.562 190.415 170.557 190.417 170.552 190.417C170.545 190.417 170.539 190.415 170.533 190.412C170.529 190.41 170.526 190.408 170.524 190.404L170.331 190.564L170.524 190.404C170.52 190.401 170.518 190.396 170.517 190.391C170.515 190.387 170.515 190.382 170.515 190.377C170.516 190.372 170.517 190.368 170.519 190.364C170.803 189.86 171.183 189.417 171.638 189.06C172.093 188.702 172.615 188.438 173.173 188.283Z" fill="#EBEBEB" stroke="#263238" stroke-width="0.5" stroke-linejoin="round"/>
<path d="M169.295 189.392L169.293 189.392C169.286 189.392 169.278 189.391 169.271 189.388C169.263 189.382 169.257 189.374 169.254 189.365C169.251 189.354 169.252 189.343 169.256 189.333C169.831 188.32 170.783 187.575 171.904 187.26C171.908 187.259 171.912 187.259 171.916 187.26C171.921 187.261 171.926 187.262 171.93 187.265C171.934 187.268 171.938 187.271 171.94 187.275C171.943 187.279 171.945 187.283 171.946 187.288C171.948 187.298 171.946 187.31 171.94 187.319C171.934 187.328 171.925 187.335 171.914 187.337C171.908 187.339 171.903 187.34 171.897 187.342C170.814 187.662 169.894 188.386 169.329 189.366L169.329 189.365L169.324 189.375C169.321 189.381 169.317 189.385 169.312 189.388C169.307 189.391 169.301 189.393 169.295 189.392Z" fill="#EBEBEB" stroke="#263238" stroke-width="0.5" stroke-linejoin="round"/>
<path d="M157.322 197.028L163.697 199.283L163.718 199.361C163.753 199.495 163.804 199.689 163.868 199.933C163.994 200.422 164.168 201.109 164.36 201.905L164.36 201.905L164.361 201.907C164.515 202.525 164.612 203.071 164.487 203.577C164.367 204.067 164.029 204.56 163.214 205.037C162.429 205.497 161.669 205.52 160.862 205.268C160.039 205.011 159.175 204.472 158.204 203.809C157.203 203.127 156.11 202.728 155.179 202.409C155.092 202.378 155.005 202.349 154.921 202.32C154.554 202.195 154.221 202.082 153.928 201.964C153.566 201.818 153.293 201.676 153.112 201.517C151.613 200.204 151.176 198.9 151.225 197.911C151.276 196.897 151.826 196.231 152.287 196.092C152.529 196.02 152.954 196.025 153.496 196.096C154.026 196.166 154.627 196.292 155.196 196.431C155.765 196.569 156.298 196.719 156.688 196.834C156.883 196.892 157.043 196.94 157.153 196.975C157.208 196.992 157.251 197.006 157.28 197.015L157.313 197.025L157.321 197.028L157.322 197.028Z" fill="#37474F" stroke="#263238" stroke-width="0.5" stroke-linejoin="round"/>
<path d="M163.338 204.888L163.338 204.888C163.648 204.705 163.905 204.515 164.115 204.32C163.926 204.557 163.644 204.798 163.236 205.037L163.236 205.037C162.467 205.487 161.723 205.519 160.935 205.284C161.734 205.449 162.53 205.362 163.338 204.888ZM154.666 202.208C154.974 202.314 155.294 202.427 155.618 202.554C155.476 202.503 155.337 202.455 155.201 202.409C155.113 202.378 155.027 202.349 154.943 202.32C154.576 202.195 154.243 202.082 153.95 201.964C153.945 201.962 153.941 201.96 153.936 201.959C154.076 202.007 154.22 202.056 154.367 202.106C154.466 202.14 154.565 202.174 154.666 202.208Z" fill="#383526" stroke="#263238" stroke-width="0.5" stroke-linejoin="round"/>
<path d="M158.224 197.127L158.223 197.126L158.214 197.134C157.271 197.895 156.657 198.99 156.498 200.192L156.498 200.192L156.497 200.201C156.496 200.21 156.492 200.219 156.485 200.225C156.478 200.231 156.47 200.235 156.461 200.235H156.456C156.448 200.233 156.44 200.228 156.435 200.221C156.428 200.213 156.425 200.202 156.425 200.191C156.575 198.955 157.207 197.828 158.184 197.058C158.187 197.055 158.191 197.054 158.195 197.053C158.2 197.052 158.205 197.052 158.209 197.053C158.214 197.053 158.219 197.055 158.223 197.058C158.227 197.06 158.231 197.064 158.234 197.068L158.437 196.921L158.233 197.067C158.24 197.076 158.242 197.088 158.241 197.099L158.488 197.138L158.241 197.099C158.239 197.11 158.233 197.12 158.224 197.127Z" fill="#EBEBEB" stroke="#263238" stroke-width="0.5" stroke-linejoin="round"/>
<path d="M159.881 197.66C159.877 197.663 159.872 197.667 159.868 197.67C158.922 198.43 158.307 199.526 158.151 200.73L158.151 200.729L158.15 200.739C158.149 200.749 158.144 200.758 158.137 200.764C158.13 200.77 158.122 200.773 158.113 200.773C158.104 200.771 158.095 200.766 158.089 200.758C158.082 200.75 158.079 200.74 158.079 200.73C158.231 199.495 158.862 198.37 159.835 197.596C159.844 197.591 159.854 197.589 159.863 197.591C159.875 197.593 159.884 197.599 159.891 197.608L160.095 197.464L159.89 197.608C159.893 197.612 159.895 197.616 159.896 197.621C159.898 197.626 159.898 197.631 159.897 197.636C159.896 197.641 159.894 197.646 159.891 197.65C159.889 197.654 159.885 197.657 159.881 197.66Z" fill="#EBEBEB" stroke="#263238" stroke-width="0.5" stroke-linejoin="round"/>
<path d="M156.687 196.566C156.683 196.569 156.68 196.572 156.676 196.575C155.73 197.334 155.115 198.431 154.959 199.634L154.959 199.634L154.958 199.643C154.957 199.652 154.953 199.66 154.946 199.667C154.939 199.673 154.931 199.676 154.922 199.676H154.918C154.909 199.674 154.902 199.669 154.897 199.663C154.89 199.655 154.887 199.645 154.887 199.635C155.036 198.398 155.668 197.271 156.644 196.5C156.652 196.495 156.662 196.493 156.671 196.495C156.681 196.496 156.691 196.502 156.697 196.511C156.703 196.519 156.705 196.53 156.703 196.54L156.95 196.582L156.703 196.54C156.702 196.551 156.696 196.56 156.687 196.566Z" fill="#EBEBEB" stroke="#263238" stroke-width="0.5" stroke-linejoin="round"/>
<path d="M178.05 176.074L178.049 176.076C177.958 176.895 177.83 177.98 177.685 179.205C177.325 182.264 176.861 186.194 176.602 189.027C176.015 189.398 175.335 189.6 174.64 189.608C173.943 189.617 173.259 189.432 172.662 189.075L172.652 188.991L172.58 188.409C172.518 187.905 172.429 187.178 172.321 186.288C172.103 184.506 171.807 182.069 171.492 179.445C170.862 174.197 170.157 168.206 169.86 165.226C169.562 162.246 169.074 156.273 168.661 151.042C168.455 148.427 168.267 145.999 168.13 144.224C168.062 143.336 168.007 142.613 167.969 142.11L167.926 141.546L178.508 139.304C178.589 140.032 178.628 141.23 178.629 142.749C178.63 144.462 178.583 146.566 178.497 148.831C178.326 153.36 178.002 158.523 177.61 162.46L177.61 162.461C177.524 163.353 177.567 164.253 177.738 165.133C178.379 168.745 178.484 172.432 178.05 176.074Z" fill="#7B8286" stroke="#263238" stroke-width="0.5" stroke-linejoin="round"/>
<path d="M175.924 192.642C175.711 192.814 175.462 192.936 175.196 192.999C174.805 193.07 174.403 193.05 174.021 192.941C173.667 192.841 173.338 192.666 173.056 192.43L172.734 189.682C173.327 189.969 173.982 190.116 174.645 190.108C175.31 190.1 175.962 189.937 176.549 189.634C176.463 190.648 176.409 191.492 176.406 192.047C176.289 192.276 176.125 192.479 175.924 192.642Z" fill="#AC6B6A" stroke="#263238" stroke-width="0.5" stroke-linejoin="round"/>
<path d="M159.24 195.851C159.227 195.841 159.216 195.833 159.205 195.825L156.382 169.563C156.382 169.563 156.382 169.563 156.382 169.563C156.345 169.214 156.331 168.863 156.34 168.512C156.34 168.512 156.34 168.512 156.34 168.512L157.205 140.473L170.033 140.66L165.209 167.37C165.008 168.475 165.007 169.608 165.208 170.713C165.542 172.684 165.668 174.685 165.584 176.682C165.477 178.401 164.705 188.694 164.238 194.919L164.157 196.007C162.932 196.947 161.702 196.901 160.756 196.612C160.269 196.463 159.86 196.25 159.572 196.073C159.428 195.985 159.316 195.906 159.24 195.851Z" fill="#7B8286" stroke="#263238" stroke-width="0.5" stroke-linejoin="round"/>
<path d="M159.628 199.811L159.628 199.811L159.628 199.811ZM159.649 199.85C159.648 199.847 159.646 199.845 159.645 199.842L159.286 196.49C159.297 196.497 159.308 196.504 159.319 196.511C159.631 196.704 160.078 196.939 160.615 197.103C161.58 197.399 162.84 197.467 164.108 196.654L163.881 199.635C163.714 199.954 163.472 200.23 163.177 200.437C162.869 200.653 162.512 200.789 162.139 200.833C161.128 200.927 160.5 200.652 160.128 200.374C159.94 200.232 159.812 200.087 159.733 199.978C159.693 199.924 159.666 199.88 159.649 199.85Z" fill="#AC6B6A" stroke="#263238" stroke-width="0.5" stroke-linejoin="round"/>
<path d="M157.017 141.082C157.015 141.081 157.013 141.08 157.01 141.078L156.844 126.998L160.202 111.103L163.201 110.071L172.752 108.525L175.573 108.289C177.096 109.28 177.817 110.579 178.162 112.145C178.479 113.586 178.476 115.238 178.471 117.085C178.471 117.299 178.47 117.516 178.47 117.736C178.47 119.821 178.259 122.98 178.046 125.624C177.94 126.944 177.833 128.134 177.754 128.993C177.714 129.423 177.681 129.77 177.657 130.01L177.63 130.286L177.623 130.357L177.621 130.376L177.621 130.38L177.621 130.381L177.621 130.382L177.87 130.407L177.621 130.382C177.619 130.398 177.619 130.415 177.621 130.431L178.463 138.949C177.19 140.956 173.844 142.898 168.646 142.898C163.932 142.898 160.983 142.415 159.221 141.938C158.34 141.7 157.757 141.463 157.397 141.289C157.218 141.202 157.094 141.13 157.017 141.082Z" fill="#08509F" stroke="#263238" stroke-width="0.5" stroke-linejoin="round"/>
<path opacity="0.2" d="M157.017 141.082C157.015 141.081 157.013 141.08 157.01 141.078L156.844 126.998L160.202 111.103L163.201 110.071L172.752 108.525L175.573 108.289C177.096 109.28 177.817 110.579 178.162 112.145C178.479 113.586 178.476 115.238 178.471 117.085C178.471 117.299 178.47 117.516 178.47 117.736C178.47 119.821 178.259 122.98 178.046 125.624C177.94 126.944 177.833 128.134 177.754 128.993C177.714 129.423 177.681 129.77 177.657 130.01L177.63 130.286L177.623 130.357L177.621 130.376L177.621 130.38L177.621 130.381L177.621 130.382L177.87 130.407L177.621 130.382C177.619 130.398 177.619 130.415 177.621 130.431L178.463 138.949C177.19 140.956 173.844 142.898 168.646 142.898C163.932 142.898 160.983 142.415 159.221 141.938C158.34 141.7 157.757 141.463 157.397 141.289C157.218 141.202 157.094 141.13 157.017 141.082Z" fill="white" stroke="#263238" stroke-width="0.5" stroke-linejoin="round"/>
<path d="M158.424 99.4102L158.424 99.4102L158.422 99.4094C158.408 99.4049 158.395 99.3974 158.384 99.3874C158.373 99.3774 158.365 99.3651 158.359 99.3515C158.353 99.3378 158.351 99.3231 158.351 99.3083C158.352 99.2935 158.355 99.2791 158.362 99.2659C158.362 99.2658 158.362 99.2658 158.362 99.2658L159.564 96.8799L159.92 99.9136L158.424 99.4102Z" fill="#F28F8F" stroke="#263238" stroke-width="0.5" stroke-linejoin="round"/>
<path d="M169.838 91.029V104.787L169.79 104.793C169.619 104.815 169.373 104.847 169.071 104.885C168.468 104.963 167.641 105.067 166.748 105.177C164.959 105.397 162.914 105.636 161.864 105.717C161.392 105.753 161.048 105.636 160.782 105.403C160.509 105.162 160.294 104.776 160.133 104.23C159.81 103.132 159.738 101.5 159.738 99.4574C159.738 95.7892 160.333 93.6592 160.911 92.4562C161.2 91.8552 161.485 91.4848 161.69 91.2683C161.793 91.16 161.877 91.0897 161.932 91.048C161.941 91.0409 161.95 91.0345 161.957 91.029H169.838Z" fill="#AC6B6A" stroke="#263238" stroke-width="0.5" stroke-linejoin="round"/>
<path d="M164.885 105.266V105.424C164.682 105.448 164.482 105.471 164.285 105.494C164.486 105.422 164.686 105.346 164.885 105.266Z" fill="#F28F8F" stroke="#263238" stroke-width="0.5" stroke-linejoin="round"/>
<path d="M170.916 108.976H165.06V104.764L170.916 103.03V108.976Z" fill="#AC6B6A" stroke="#263238" stroke-width="0.5" stroke-linejoin="round"/>
<path d="M168.991 110.42C167.117 110.539 165.238 110.287 163.464 109.677C163.482 109.63 163.503 109.577 163.526 109.519C163.622 109.282 163.756 108.972 163.912 108.671C164.071 108.366 164.244 108.085 164.414 107.898C164.596 107.698 164.696 107.687 164.733 107.696L164.734 107.696L164.755 107.703C164.773 107.71 164.8 107.719 164.834 107.73C164.902 107.752 165.001 107.783 165.125 107.82C165.373 107.893 165.723 107.986 166.132 108.07C166.944 108.235 168.01 108.366 168.971 108.198C169.936 108.029 170.541 107.647 170.908 107.293C171.09 107.116 171.211 106.949 171.288 106.824C171.289 106.821 171.29 106.819 171.292 106.817C171.329 106.838 171.375 106.869 171.429 106.911C171.65 107.087 171.996 107.465 172.436 108.268C172.086 108.856 171.606 109.355 171.031 109.727C170.418 110.122 169.718 110.36 168.991 110.42Z" fill="#08509F" stroke="#263238" stroke-width="0.5" stroke-linejoin="round"/>
<path opacity="0.4" d="M168.991 110.42C167.117 110.539 165.238 110.287 163.464 109.677C163.482 109.63 163.503 109.577 163.526 109.519C163.622 109.282 163.756 108.972 163.912 108.671C164.071 108.366 164.244 108.085 164.414 107.898C164.596 107.698 164.696 107.687 164.733 107.696L164.734 107.696L164.755 107.703C164.773 107.71 164.8 107.719 164.834 107.73C164.902 107.752 165.001 107.783 165.125 107.82C165.373 107.893 165.723 107.986 166.132 108.07C166.944 108.235 168.01 108.366 168.971 108.198C169.936 108.029 170.541 107.647 170.908 107.293C171.09 107.116 171.211 106.949 171.288 106.824C171.289 106.821 171.29 106.819 171.292 106.817C171.329 106.838 171.375 106.869 171.429 106.911C171.65 107.087 171.996 107.465 172.436 108.268C172.086 108.856 171.606 109.355 171.031 109.727C170.418 110.122 169.718 110.36 168.991 110.42Z" fill="white" stroke="#263238" stroke-width="0.5" stroke-linejoin="round"/>
<path d="M148.819 124.11L148.921 123.882L148.819 124.11L148.819 124.11L148.818 124.11L148.816 124.109L148.807 124.105L148.772 124.089L148.635 124.028C148.517 123.976 148.344 123.899 148.127 123.804C147.693 123.613 147.085 123.347 146.386 123.046C144.989 122.444 143.232 121.703 141.787 121.143C140.073 120.506 138.478 119.586 137.067 118.423C137.003 118.37 136.97 118.289 136.977 118.207C137.082 117.065 137.265 115.932 137.525 114.816C137.525 114.813 137.526 114.81 137.527 114.807C137.527 114.805 137.528 114.803 137.528 114.802C137.611 114.521 137.678 114.258 137.718 114.03C137.759 113.797 137.768 113.621 137.748 113.506C137.739 113.45 137.725 113.422 137.717 113.411C137.713 113.405 137.712 113.404 137.707 113.403L137.707 113.403C137.68 113.395 137.576 113.391 137.339 113.511C137.136 113.615 136.934 113.801 136.74 114.045C136.548 114.287 136.376 114.572 136.229 114.855C135.932 115.426 135.754 115.958 135.73 116.059C135.709 116.147 135.641 116.217 135.554 116.241C135.467 116.266 135.373 116.241 135.309 116.177L135.487 116L135.309 116.177L135.309 116.176L135.308 116.176L135.305 116.173L135.293 116.16L135.244 116.111C135.201 116.069 135.139 116.006 135.058 115.926C134.898 115.766 134.668 115.538 134.39 115.265C133.833 114.718 133.084 113.99 132.312 113.267C131.54 112.544 130.748 111.828 130.106 111.302C129.785 111.038 129.506 110.826 129.289 110.686C129.18 110.616 129.093 110.568 129.029 110.54C128.991 110.523 128.971 110.518 128.963 110.516C128.844 110.541 128.808 110.584 128.794 110.614C128.773 110.66 128.757 110.764 128.823 110.97C128.956 111.38 129.36 112.019 130.132 112.919C130.132 112.919 130.132 112.919 130.132 112.92L131.698 114.73C131.747 114.787 131.768 114.862 131.755 114.936C131.743 115.009 131.698 115.073 131.634 115.111C131.634 115.111 131.634 115.111 131.634 115.111L131.633 115.111L131.632 115.112L131.625 115.115L131.598 115.132C131.573 115.147 131.536 115.169 131.49 115.198C131.396 115.257 131.262 115.344 131.103 115.455C130.784 115.678 130.367 115.997 129.97 116.382C129.571 116.769 129.2 117.214 128.964 117.687C128.729 118.159 128.634 118.646 128.76 119.133C128.885 119.619 129.241 120.061 129.743 120.454C130.242 120.846 130.863 121.173 131.478 121.435C132.09 121.696 132.687 121.889 133.131 122.017C133.353 122.08 133.536 122.128 133.663 122.159C133.726 122.175 133.776 122.186 133.809 122.194L133.847 122.203L133.856 122.205L133.859 122.205L133.859 122.205L133.859 122.205L148.819 124.11ZM148.819 124.11C148.931 124.16 149.063 124.121 149.13 124.018L150.732 121.555L157.589 123.848M148.819 124.11L157.589 123.848M157.589 123.848C157.468 123.998 157.3 124.204 157.094 124.451C156.643 124.993 156.01 125.736 155.282 126.538C153.821 128.149 151.999 129.977 150.505 130.916C150.201 131.108 149.727 131.162 149.078 131.059C148.438 130.958 147.67 130.71 146.818 130.352C145.116 129.636 143.121 128.5 141.212 127.297C139.304 126.096 137.491 124.835 136.154 123.873C135.485 123.392 134.936 122.986 134.554 122.701C134.364 122.558 134.214 122.446 134.113 122.369L133.998 122.281L133.969 122.259L133.961 122.253L133.96 122.252L133.959 122.252C133.959 122.251 133.959 122.251 133.807 122.45L133.959 122.251C133.93 122.229 133.895 122.213 133.859 122.205L157.589 123.848Z" fill="#AC6B6A" stroke="#263238" stroke-width="0.5" stroke-linejoin="round"/>
<path d="M155.894 112.881L155.895 112.88C156.27 112.29 156.78 111.796 157.381 111.439C157.983 111.082 158.66 110.872 159.358 110.826C159.861 110.795 160.453 110.769 161.145 110.748C161.152 110.755 161.16 110.763 161.169 110.771C161.229 110.831 161.316 110.923 161.416 111.047C161.616 111.295 161.869 111.671 162.073 112.177C162.478 113.182 162.7 114.722 161.894 116.828C161.075 118.964 159.616 121.334 158.354 123.178C157.724 124.098 157.145 124.883 156.724 125.439C156.514 125.716 156.343 125.936 156.225 126.087C156.197 126.122 156.172 126.154 156.151 126.181C156.143 126.178 156.135 126.176 156.127 126.173C156.006 126.129 155.831 126.063 155.614 125.972C155.18 125.79 154.583 125.51 153.935 125.12C152.664 124.358 151.215 123.186 150.378 121.522L155.894 112.881Z" fill="#08509F" stroke="#263238" stroke-width="0.5" stroke-linejoin="round"/>
<path opacity="0.4" d="M155.894 112.881L155.895 112.88C156.27 112.29 156.78 111.796 157.381 111.439C157.983 111.082 158.66 110.872 159.358 110.826C159.861 110.795 160.453 110.769 161.145 110.748C161.152 110.755 161.16 110.763 161.169 110.771C161.229 110.831 161.316 110.923 161.416 111.047C161.616 111.295 161.869 111.671 162.073 112.177C162.478 113.182 162.7 114.722 161.894 116.828C161.075 118.964 159.616 121.334 158.354 123.178C157.724 124.098 157.145 124.883 156.724 125.439C156.514 125.716 156.343 125.936 156.225 126.087C156.197 126.122 156.172 126.154 156.151 126.181C156.143 126.178 156.135 126.176 156.127 126.173C156.006 126.129 155.831 126.063 155.614 125.972C155.18 125.79 154.583 125.51 153.935 125.12C152.664 124.358 151.215 123.186 150.378 121.522L155.894 112.881Z" fill="white" stroke="#263238" stroke-width="0.5" stroke-linejoin="round"/>
<path d="M159.518 89.4409L159.518 89.4405L159.518 89.4401L159.517 89.4398C159.574 89.5278 159.57 89.6416 159.507 89.725L160.927 86.6603C160.927 86.6602 160.926 86.6601 160.926 86.66C160.923 86.6594 160.916 86.6581 160.907 86.6568C160.888 86.654 160.858 86.6509 160.818 86.6511C160.738 86.6516 160.621 86.6655 160.486 86.7234C160.224 86.8359 159.844 87.1359 159.542 87.9534L159.542 87.9535C159.357 88.4537 159.36 88.8361 159.403 89.0852C159.425 89.2108 159.457 89.3046 159.481 89.3646C159.494 89.3945 159.505 89.416 159.511 89.4286C159.515 89.4349 159.517 89.439 159.518 89.4409ZM159.518 89.4409L159.518 89.4412L159.519 89.4419C159.519 89.4422 159.519 89.4418 159.518 89.4409ZM161.712 93.5713C161.727 93.4881 161.698 93.4034 161.636 93.346C161.574 93.2884 161.488 93.266 161.406 93.2863C161.19 93.3397 160.965 93.3389 160.75 93.2839L160.688 93.5261L160.75 93.2839C160.535 93.2288 160.337 93.1213 160.173 92.9709C160.01 92.8205 159.886 92.6319 159.814 92.4219C159.741 92.212 159.721 91.9872 159.756 91.7678C159.765 91.7111 159.755 91.653 159.726 91.6033C159.353 90.9561 159.316 90.4729 159.357 90.1665C159.378 90.0112 159.42 89.8956 159.454 89.8216C159.471 89.7845 159.486 89.7579 159.496 89.742C159.501 89.7341 159.504 89.7289 159.506 89.7264L161.712 93.5713ZM160.924 86.6595C160.924 86.6595 160.924 86.6595 160.924 86.6595C160.924 86.6595 160.924 86.6595 160.924 86.6595L160.924 86.6595Z" fill="#383526" stroke="#263238" stroke-width="0.5" stroke-linejoin="round"/>
<path d="M164.494 98.5738C164.493 98.5574 164.493 98.5371 164.493 98.5133C164.493 98.4399 164.495 98.3337 164.504 98.2058C164.524 97.9485 164.574 97.6107 164.693 97.277C164.813 96.9431 164.997 96.625 165.277 96.3911C165.553 96.1606 165.94 95.9974 166.495 95.9974C166.997 95.9974 167.337 96.2514 167.542 96.6561C167.753 97.0736 167.817 97.6531 167.717 98.2528C167.522 99.4181 166.75 100.503 165.518 100.586L164.494 98.5738Z" fill="#AC6B6A" stroke="#263238" stroke-width="0.5" stroke-linejoin="round"/>
</g>
<defs>
<filter id="filter0_d_802_777" x="26.8373" y="0.881226" width="234.325" height="236.823" filterUnits="userSpaceOnUse" color-interpolation-filters="sRGB">
<feFlood flood-opacity="0" result="BackgroundImageFix"/>
<feColorMatrix in="SourceAlpha" type="matrix" values="0 0 0 0 0 0 0 0 0 0 0 0 0 0 0 0 0 0 127 0" result="hardAlpha"/>
<feOffset dy="4"/>
<feGaussianBlur stdDeviation="2"/>
<feComposite in2="hardAlpha" operator="out"/>
<feColorMatrix type="matrix" values="0 0 0 0 0 0 0 0 0 0 0 0 0 0 0 0 0 0 0.25 0"/>
<feBlend mode="normal" in2="BackgroundImageFix" result="effect1_dropShadow_802_777"/>
<feBlend mode="normal" in="SourceGraphic" in2="effect1_dropShadow_802_777" result="shape"/>
</filter>
<filter id="filter1_d_802_777" x="0.83728" y="72.9202" width="286.325" height="190.784" filterUnits="userSpaceOnUse" color-interpolation-filters="sRGB">
<feFlood flood-opacity="0" result="BackgroundImageFix"/>
<feColorMatrix in="SourceAlpha" type="matrix" values="0 0 0 0 0 0 0 0 0 0 0 0 0 0 0 0 0 0 127 0" result="hardAlpha"/>
<feOffset dy="4"/>
<feGaussianBlur stdDeviation="15"/>
<feComposite in2="hardAlpha" operator="out"/>
<feColorMatrix type="matrix" values="0 0 0 0 0.0313726 0 0 0 0 0.313726 0 0 0 0 0.623529 0 0 0 0.15 0"/>
<feBlend mode="normal" in2="BackgroundImageFix" result="effect1_dropShadow_802_777"/>
<feBlend mode="normal" in="SourceGraphic" in2="effect1_dropShadow_802_777" result="shape"/>
</filter>
</defs>
</svg>
