<svg width="194" height="179" viewBox="0 0 194 179" fill="none" xmlns="http://www.w3.org/2000/svg">
<path d="M97 178.801C150.402 178.801 193.693 153.786 193.693 122.927C193.693 92.0681 150.402 67.0521 97 67.0521C43.598 67.0521 0.307129 92.0681 0.307129 122.927C0.307129 153.786 43.598 178.801 97 178.801Z" fill="#F5F5F5"/>
<path d="M18.2504 142.914L18.0846 142.625L104.411 92.739L104.494 92.7888L175.915 134.062L175.749 134.347L104.411 93.1242L18.2504 142.914Z" fill="#E0E0E0"/>
<path d="M170.1 78.0661L169.297 78.3417L139.646 61.2083L140.448 60.9327L170.1 78.0661Z" fill="#FAFAFA"/>
<path d="M140.448 60.9327L169.297 77.5979L169.294 27.8215L140.448 11.1596V60.9327Z" fill="white"/>
<path d="M138.146 61.7063L170.83 80.5962V27.3134L138.146 8.43683V61.7063ZM139.662 10.6881L169.31 27.8214V78.3417L139.659 61.2083L139.662 10.6881Z" fill="#F0F0F0"/>
<path d="M139.646 61.2083L140.448 60.9327V11.1596L139.646 10.6881V61.2083Z" fill="#E0E0E0"/>
<path d="M169.297 62.7191V63.4629L139.646 46.3295L140.448 46.0506L169.297 62.7191Z" fill="#FAFAFA"/>
<path d="M169.297 40.5885V41.3323L139.646 24.1956L140.448 23.92L169.297 40.5885Z" fill="#FAFAFA"/>
<path d="M138.13 8.43684L138.946 8.1712L171.629 27.0578L170.813 27.3234L138.13 8.43684Z" fill="#FAFAFA"/>
<path d="M171.629 27.0577L170.813 27.3234V80.5929L171.629 80.3306V27.0577Z" fill="#E0E0E0"/>
<path d="M156.074 20.1812L155.258 19.7097V70.2332L156.074 69.9676V20.1812Z" fill="#E0E0E0"/>
<path d="M153.741 18.8364L155.257 19.7097V70.2332L153.741 69.3533V18.8364Z" fill="#F0F0F0"/>
<path d="M138.13 23.319V24.6936L170.813 43.5835V42.2088L138.13 23.319Z" fill="#F0F0F0"/>
<path d="M138.13 45.4496V46.8242L170.813 65.7108V64.3361L138.13 45.4496Z" fill="#F0F0F0"/>
<path d="M155.258 33.2171L156.074 32.9482L169.297 40.5885V41.3322L155.258 33.2171Z" fill="#FAFAFA"/>
<path d="M155.258 55.3411L156.074 55.0721L169.297 62.7124V63.4529L155.258 55.3411Z" fill="#FAFAFA"/>
<path d="M131.856 51.7618L131.183 52.1635L117.352 44.1347L118.029 43.733L131.856 51.7618Z" fill="#FAFAFA"/>
<path d="M118.029 43.733L131.183 51.3667L131.21 37.5637L118.056 29.9333L118.029 43.733Z" fill="white"/>
<path d="M116.079 44.8653L132.45 54.3716L132.487 36.8299L116.112 27.3135L116.079 44.8653ZM117.379 29.5349L131.209 37.5637L131.183 52.1735L117.352 44.1448L117.379 29.5349Z" fill="#F0F0F0"/>
<path d="M117.352 44.1347L118.029 43.733L118.056 29.9333L117.379 29.5349L117.352 44.1347Z" fill="#E0E0E0"/>
<path d="M116.112 27.3234L116.798 26.9349L133.17 36.438L132.487 36.8298L116.112 27.3234Z" fill="#FAFAFA"/>
<path d="M133.17 36.438L132.487 36.8298L132.45 54.3716L133.137 53.9798L133.17 36.438Z" fill="#E0E0E0"/>
<path d="M118.543 43.3213L130.672 50.3605L130.679 46.8542L127.656 39.8315L125.762 41.5814L126.436 44.5232L122.259 35.5415L118.55 39.8116L118.543 43.3213Z" fill="#F0F0F0"/>
<path d="M125.872 36.438C126.133 36.6095 126.35 36.8401 126.506 37.1113C126.661 37.3824 126.751 37.6863 126.767 37.9986C126.767 38.5697 126.363 38.8021 125.868 38.5132C125.608 38.342 125.391 38.1119 125.235 37.8414C125.08 37.5709 124.99 37.2676 124.973 36.9559C124.989 36.3815 125.391 36.1524 125.872 36.438Z" fill="#F0F0F0"/>
<path d="M131.856 28.2033L131.183 28.6051L117.352 20.5763L118.029 20.1746L131.856 28.2033Z" fill="#FAFAFA"/>
<path d="M118.029 20.1745L131.183 27.8082L131.209 14.0052L118.056 6.37488L118.029 20.1745Z" fill="white"/>
<path d="M116.079 21.3102L132.45 30.8132L132.487 13.2714L116.112 3.76837L116.079 21.3102ZM117.379 5.97645L131.209 14.0052L131.183 28.6151L117.352 20.5763L117.379 5.97645Z" fill="#F0F0F0"/>
<path d="M117.352 20.5763L118.029 20.1746L118.056 6.37489L117.379 5.97644L117.352 20.5763Z" fill="#E0E0E0"/>
<path d="M116.112 3.7684L116.798 3.37659L133.17 12.8796L132.487 13.2714L116.112 3.7684Z" fill="#FAFAFA"/>
<path d="M133.17 12.8796L132.487 13.2714L132.45 30.8132L133.137 30.4214L133.17 12.8796Z" fill="#E0E0E0"/>
<path d="M118.543 19.7628L130.672 26.8021L130.679 23.2958L127.656 16.2731L125.762 18.0229L126.436 20.9648L122.259 11.9831L118.55 16.2532L118.543 19.7628Z" fill="#F0F0F0"/>
<path d="M125.872 12.8796C126.133 13.0511 126.35 13.2818 126.506 13.5529C126.661 13.824 126.751 14.128 126.767 14.4402C126.767 15.0113 126.363 15.2438 125.868 14.9549C125.608 14.7837 125.391 14.5536 125.235 14.2831C125.08 14.0126 124.99 13.7093 124.973 13.3976C124.989 12.8232 125.391 12.5941 125.872 12.8796Z" fill="#F0F0F0"/>
<path d="M67.3653 116.397L28.2626 138.966L29.7554 95.2825L67.3653 116.397Z" fill="#E0E0E0"/>
<g opacity="0.15">
<path d="M67.3653 116.397L28.2626 138.966L28.2924 93.8713L67.3653 116.397Z" fill="black"/>
</g>
<path d="M26.4844 31.1519V137.963L65.5871 115.384V8.58301L26.4844 31.1519ZM43.6389 68.5863L32.2567 75.1276V32.2941L43.6389 25.7396V68.5863ZM60.0768 59.0634L48.7311 65.6278V22.7944L60.0801 16.2333L60.0768 59.0634Z" fill="#08509F"/>
<path opacity="0.4" d="M26.4844 31.1519V137.963L65.5871 115.384V8.58301L26.4844 31.1519ZM43.6389 68.5863L32.2567 75.1276V32.2941L43.6389 25.7396V68.5863ZM60.0768 59.0634L48.7311 65.6278V22.7944L60.0801 16.2333L60.0768 59.0634Z" fill="white"/>
<path opacity="0.4" d="M43.6357 68.5864L44.8665 69.2969L32.2569 76.562V75.1409L43.6357 68.5864Z" fill="white"/>
<path opacity="0.4" d="M60.0767 59.0667L61.3075 59.7772L48.7344 67.0489L47.5036 66.3384L60.0767 59.0667Z" fill="white"/>
<path opacity="0.7" d="M60.0769 59.0667V16.2266L61.311 15.5128L61.3077 59.7773L60.0769 59.0667Z" fill="#08509F"/>
<path d="M44.8665 69.2969L48.7346 67.0489V22.8043L44.8665 25.0522V69.2969Z" fill="#08509F"/>
<path opacity="0.4" d="M44.8665 69.2969L48.7346 67.0489V22.8043L44.8665 25.0522V69.2969Z" fill="white"/>
<path opacity="0.7" d="M44.8664 69.2969L43.6356 68.5863V25.7629L44.8664 25.0523V69.2969Z" fill="#08509F"/>
<path opacity="0.4" d="M44.8665 75.2072L32.2569 82.4756V128.092L44.8665 120.823V75.2072Z" fill="white"/>
<path d="M44.0004 78.0794L34.2438 83.6976L34.2471 124.569L44.0004 118.954V78.0794Z" fill="#08509F"/>
<path opacity="0.4" d="M44.0004 78.0794L34.2438 83.6976L34.2471 124.569L44.0004 118.954V78.0794Z" fill="white"/>
<path opacity="0.7" d="M32.2569 82.4757L34.244 83.6976L34.2474 124.569L32.2569 128.092V82.4757Z" fill="#08509F"/>
<path opacity="0.7" d="M44.8664 75.2072L44.0006 78.0794V118.954L44.8664 120.823V75.2072Z" fill="#08509F"/>
<path d="M44.8665 120.823L44.0006 118.954L34.2474 124.569L32.2569 128.092L44.8665 120.823Z" fill="#08509F"/>
<path opacity="0.4" d="M61.3109 65.6876L48.7345 72.9593V118.575L61.3109 111.304V65.6876Z" fill="white"/>
<path d="M60.4451 68.5598L50.725 74.1813V115.052L60.4451 109.431V68.5598Z" fill="#08509F"/>
<path opacity="0.4" d="M60.4451 68.5598L50.725 74.1813V115.052L60.4451 109.431V68.5598Z" fill="white"/>
<path opacity="0.7" d="M48.7345 72.9593L50.725 74.1812V115.052L48.7345 118.575V72.9593Z" fill="#08509F"/>
<path opacity="0.7" d="M61.3108 65.6876L60.445 68.5598V109.431L61.3108 111.304V65.6876Z" fill="#08509F"/>
<path d="M61.3109 111.304L60.4451 109.431L50.725 115.052L48.7345 118.575L61.3109 111.304Z" fill="#08509F"/>
<path d="M28.6939 78.79L29.3242 79.1552V89.6278L28.6939 89.2626V78.79Z" fill="#E0E0E0"/>
<path d="M29.3242 79.1553L32.7246 77.1896V87.6622L29.3242 89.6279V79.1553Z" fill="#FAFAFA"/>
<path opacity="0.05" d="M32.7244 80.0717L31.2349 80.9316V82.635C31.2356 82.6705 31.2455 82.7051 31.2635 82.7357C31.2815 82.7662 31.3072 82.7915 31.3379 82.8092C31.3686 82.8269 31.4033 82.8364 31.4388 82.8367C31.4742 82.837 31.5091 82.8282 31.5401 82.811L32.7244 82.127V80.0717Z" fill="black"/>
<path d="M32.7245 77.1896L32.0942 76.8276L28.6939 78.79L29.3242 79.1553L32.7245 77.1896Z" fill="#EBEBEB"/>
<path d="M30.6277 80.5797L32.1869 81.4828L32.8106 80.4004L31.2514 79.5006C31.2015 79.4772 31.1462 79.4677 31.0914 79.4729C31.0365 79.4782 30.9841 79.498 30.9395 79.5304C30.8113 79.6141 30.7045 79.7269 30.6278 79.8596C30.5512 79.9922 30.5068 80.1411 30.4983 80.2941C30.4924 80.349 30.5014 80.4044 30.5241 80.4546C30.5469 80.5048 30.5826 80.548 30.6277 80.5797Z" fill="#E0E0E0"/>
<path opacity="0.1" d="M31.2349 80.9317L31.8022 81.2604V80.5133L32.406 80.1647L31.8387 79.8393L31.2349 80.1879V80.9317Z" fill="black"/>
<path d="M31.9912 80.6328V82.2698L38.2214 78.6705V77.0335L31.9912 80.6328Z" fill="#FAFAFA"/>
<path d="M31.9913 80.6328L31.424 80.3041V81.941L31.9913 82.2698V80.6328Z" fill="#E0E0E0"/>
<path d="M38.2214 77.0335L37.6541 76.7047L31.424 80.3041L31.9913 80.6328L38.2214 77.0335Z" fill="#EBEBEB"/>
<path d="M30.452 85.1918C30.4616 84.9924 30.5184 84.7981 30.6176 84.625C30.7168 84.4518 30.8556 84.3047 31.0226 84.1956C31.3544 84.013 31.5966 84.1591 31.5966 84.5277C31.5839 84.8272 31.4665 85.1128 31.2648 85.3345V86.417C31.2605 86.4834 31.2409 86.548 31.2075 86.6056C31.1741 86.6632 31.1279 86.7123 31.0724 86.749L31.0027 86.7889C30.8966 86.8487 30.8103 86.7889 30.8103 86.676V85.6068C30.5947 85.6168 30.452 85.464 30.452 85.1918Z" fill="#455A64"/>
<path d="M24.6963 136.931L26.4844 137.963V31.1519L24.693 30.1193L24.6963 136.931Z" fill="#263238"/>
<path d="M63.7957 7.547L24.693 30.1192L26.4844 31.1519L65.5871 8.58297L63.7957 7.547Z" fill="#37474F"/>
<path d="M65.5871 115.398L67.3653 116.397V7.55365L65.5871 8.57966V115.398Z" fill="#E0E0E0"/>
<path d="M67.3652 116.397L70.3144 114.69V1.97864L25.3033 27.9642L25.3066 140.663L28.2625 138.966V30.1258L67.3619 7.55362L67.3652 116.397Z" fill="#F0F0F0"/>
<path d="M70.3145 1.97867L25.3034 27.9643L23.5584 26.9482L68.5695 0.965942L70.3145 1.97867Z" fill="#FAFAFA"/>
<path d="M25.3034 140.663V27.9643L23.5585 26.9482V139.653L25.3034 140.663Z" fill="#E0E0E0"/>
<path d="M129.647 83.3555C129.647 82.5985 130.144 81.8414 131.146 81.2603L134.096 79.557C136.086 78.4015 139.34 78.4015 141.341 79.557L168.076 95.0069C169.071 95.5846 169.576 96.3351 169.576 97.1021V132.445C169.576 133.205 169.078 133.965 168.076 134.543L165.127 136.247C163.136 137.402 159.882 137.402 157.882 136.247L131.146 120.797C130.151 120.219 129.647 119.468 129.647 118.705V83.3555Z" fill="#08509F"/>
<path opacity="0.4" d="M129.647 83.3555C129.647 82.5985 130.144 81.8414 131.146 81.2603L134.096 79.557C136.086 78.4015 139.34 78.4015 141.341 79.557L168.076 95.0069C169.071 95.5846 169.576 96.3351 169.576 97.1021V132.445C169.576 133.205 169.078 133.965 168.076 134.543L165.127 136.247C163.136 137.402 159.882 137.402 157.882 136.247L131.146 120.797C130.151 120.219 129.647 119.468 129.647 118.705V83.3555Z" fill="white"/>
<path opacity="0.4" d="M165.127 100.897L168.076 99.1939C170.067 98.0384 170.067 96.1624 168.076 95.0069L141.341 79.557C139.35 78.4015 136.096 78.4015 134.096 79.557L131.146 81.2603C129.156 82.4192 129.156 84.2919 131.146 85.4474L157.882 100.897C159.882 102.053 163.127 102.053 165.127 100.897Z" fill="white"/>
<path opacity="0.3" d="M161.501 101.764V137.113C162.762 137.14 164.009 136.842 165.124 136.25L168.076 134.543C169.071 133.965 169.582 133.215 169.572 132.441V97.0988C169.572 97.8625 169.078 98.6162 168.076 99.1939L165.124 100.901C164.009 101.493 162.762 101.79 161.501 101.764Z" fill="#08509F"/>
<path d="M142.044 119.249L148.43 122.942L147.435 111.383C148.198 110.978 148.686 109.985 148.686 108.558C148.686 106.011 147.14 103.056 145.232 101.953C143.325 100.851 141.795 102.023 141.795 104.563C141.835 106.071 142.266 107.543 143.046 108.833L142.044 119.249Z" fill="#455A64"/>
<path d="M142.044 119.249L147.827 115.906L148.427 122.938L142.044 119.249Z" fill="#37474F"/>
<path d="M145.236 101.95C146.483 102.67 147.574 104.188 148.182 105.861L143.033 108.85C142.254 107.553 141.828 106.075 141.795 104.563C141.795 102.023 143.328 100.847 145.236 101.95Z" fill="#37474F"/>
<path d="M136.869 84.1424V70.0074C136.869 65.6278 138.528 62.1646 141.404 60.4977C144.154 58.9072 147.558 59.1231 150.985 61.1054C157.288 64.7412 162.208 73.6167 162.208 81.3101V95.5182C162.208 95.9465 161.926 96.3749 161.362 96.7003C160.729 97.0212 160.029 97.1884 159.32 97.1884C158.61 97.1884 157.911 97.0212 157.278 96.7003C156.714 96.3682 156.429 95.9465 156.429 95.5182V81.3101C156.429 75.6654 152.613 68.7257 148.095 66.1126C146.553 65.2227 145.169 65.0002 144.293 65.5082C143.265 66.1026 142.635 67.786 142.635 70.0074V84.1391C142.635 84.5641 142.346 84.9858 141.789 85.3079C141.156 85.6288 140.456 85.796 139.747 85.796C139.037 85.796 138.338 85.6288 137.705 85.3079C137.144 84.9759 136.862 84.5641 136.859 84.1391L136.869 84.1424Z" fill="#455A64"/>
<path d="M125.254 131.907V132.8C125.254 133.853 125.941 134.905 127.331 135.709C129.421 136.917 132.493 137.209 135.064 136.595L137.453 137.973L139.287 137.558L140.541 138.282L140.608 139.799L141.271 140.188L142.963 140.337L144.184 141.018V141.868L145.71 142.751H149.598L150.991 141.948V141.045L138.561 134.762C139.089 134.246 139.396 133.545 139.42 132.807V131.907C139.234 131.034 138.508 130.579 137.347 129.915C134.576 128.314 130.088 128.314 127.318 129.915C126.084 130.632 125.377 130.964 125.254 131.907ZM129.06 130.861C129.5 130.637 129.987 130.52 130.481 130.52C130.975 130.52 131.462 130.637 131.903 130.861C132.686 131.316 132.686 132.05 131.903 132.501C131.462 132.725 130.975 132.842 130.481 132.842C129.987 132.842 129.5 132.725 129.06 132.501C128.277 132.05 128.277 131.316 129.06 130.861Z" fill="#E0E0E0"/>
<path d="M127.331 134.806C129.421 136.011 132.493 136.306 135.064 135.692L137.453 137.07L139.287 136.655L140.541 137.379L140.608 138.896L141.271 139.285L142.963 139.434L144.29 140.171L144.187 140.968L145.713 141.851H149.601L150.994 141.048L138.564 133.863C140.027 132.309 139.626 130.323 137.35 129.008C134.58 127.408 130.091 127.408 127.321 129.008C124.551 130.608 124.561 133.205 127.331 134.806ZM129.06 129.958C129.5 129.733 129.987 129.617 130.481 129.617C130.975 129.617 131.462 129.733 131.903 129.958C132.685 130.409 132.685 131.146 131.903 131.598C131.462 131.822 130.975 131.939 130.481 131.939C129.987 131.939 129.5 131.822 129.06 131.598C128.277 131.146 128.277 130.409 129.06 129.958Z" fill="#F0F0F0"/>
<g opacity="0.1">
<path d="M127.739 134.098C126.678 133.484 126.081 132.687 126.081 131.907C126.081 131.126 126.691 130.33 127.739 129.715C129.169 128.998 130.746 128.625 132.346 128.625C133.945 128.625 135.522 128.998 136.952 129.715C138.013 130.33 138.611 131.126 138.611 131.907C138.611 132.687 138.003 133.484 136.952 134.098C135.522 134.815 133.945 135.189 132.346 135.189C130.746 135.189 129.169 134.815 127.739 134.098ZM127.865 129.938C126.887 130.502 126.323 131.219 126.323 131.907C126.323 132.594 126.887 133.311 127.865 133.876C129.257 134.57 130.79 134.931 132.344 134.931C133.898 134.931 135.431 134.57 136.822 133.876C137.818 133.311 138.365 132.591 138.365 131.907C138.365 131.223 137.801 130.502 136.822 129.938C135.432 129.242 133.899 128.879 132.344 128.879C130.789 128.879 129.256 129.242 127.865 129.938Z" fill="black"/>
</g>
<path opacity="0.1" d="M129.793 135.729V136.632C131.531 137.01 133.331 136.997 135.064 136.595V135.692C133.331 136.094 131.531 136.107 129.793 135.729Z" fill="black"/>
<path opacity="0.1" d="M137.453 137.07V137.973L139.287 137.558V136.655L137.453 137.07Z" fill="black"/>
<path opacity="0.1" d="M140.541 137.379V138.282L140.608 139.799V138.896L140.541 137.379Z" fill="black"/>
<path opacity="0.1" d="M141.284 139.285V140.188L142.976 140.337V139.434L141.284 139.285Z" fill="black"/>
<path opacity="0.1" d="M149.611 141.851H145.723V142.755H149.611V141.851Z" fill="black"/>
<path opacity="0.15" d="M151.005 141.045V141.951L149.611 142.755V141.851L150.222 141.499V141.888L150.557 141.692V141.3L151.005 141.045Z" fill="black"/>
<path d="M150.557 141.3L150.222 141.499V141.888L150.557 141.692V141.3Z" fill="#08509F"/>
<path opacity="0.15" d="M150.557 141.3V141.692L137.811 134.327L138.146 134.128L150.557 141.3Z" fill="black"/>
<path opacity="0.15" d="M138.146 134.128V134.52L137.811 134.327L138.146 134.128Z" fill="black"/>
<path d="M67.4514 127.853L67.2722 127.955L67.1064 127.853V127.657L66.6685 127.401L54.238 134.583C51.5509 133.736 48.114 133.969 45.8382 135.284C44.4416 136.09 43.7516 137.15 43.7648 138.206V139.072C43.7648 140.118 44.4549 141.164 45.8382 141.961C48.6083 143.561 53.0968 143.561 55.8669 141.961C57.2569 141.161 57.9469 140.108 57.9403 139.059V138.182C57.9383 137.874 57.8798 137.569 57.7678 137.283L59.7914 136.114V135.227L59.5028 134.802L60.3255 134.327L62.9463 134.287L63.6098 133.896L63.8685 132.916L65.1458 132.152L66.5225 132.212L68.0518 131.329V128.201L67.4514 127.853ZM47.4804 140.078C47.3088 139.985 47.1594 139.856 47.0425 139.7C47.1612 139.545 47.3102 139.416 47.4804 139.321C47.9207 139.097 48.4078 138.98 48.9019 138.98C49.396 138.98 49.8831 139.097 50.3234 139.321C50.4933 139.415 50.6414 139.544 50.758 139.7C50.6432 139.857 50.4947 139.986 50.3234 140.078C49.8831 140.303 49.396 140.419 48.9019 140.419C48.4078 140.419 47.9207 140.303 47.4804 140.078Z" fill="#E0E0E0"/>
<path opacity="0.1" d="M57.9303 138.421V139.212C57.8772 140.208 57.1938 141.204 55.8668 141.978C54.9318 142.495 53.9134 142.845 52.8579 143.01V142.12C53.9142 141.96 54.9332 141.611 55.8668 141.091C57.144 140.337 57.8374 139.391 57.9303 138.421Z" fill="black"/>
<path opacity="0.15" d="M54.8319 134.905L54.6958 134.829L67.1064 127.657" fill="black"/>
<path opacity="0.15" d="M60.3255 134.331V133.447L59.0715 134.168L59.5027 134.805L60.3255 134.331Z" fill="black"/>
<path opacity="0.1" d="M62.9463 133.408V134.291L60.3255 134.331V133.447L62.9463 133.408Z" fill="black"/>
<path opacity="0.1" d="M63.8784 132.036V132.92L63.6197 133.899V133.016L63.8784 132.036Z" fill="black"/>
<path opacity="0.15" d="M65.1557 132.156V131.273L63.8785 132.036V132.919L65.1557 132.156Z" fill="black"/>
<path opacity="0.1" d="M65.1556 131.273L66.5323 131.332V132.216L65.1556 132.156V131.273Z" fill="black"/>
<path d="M55.8735 141.078C57.9668 139.872 58.4744 138.089 57.4095 136.612L59.7981 135.23L59.0782 134.171L60.3322 133.447L62.9529 133.408L63.6164 133.016L63.8752 132.036L65.1524 131.273L66.5292 131.332L68.0585 130.449V128.204L67.4481 127.853L67.2689 127.955L67.1031 127.853V127.657L66.6652 127.401L54.2347 134.583C51.5476 133.736 48.1107 133.969 45.8349 135.284C43.0649 136.884 43.0649 139.477 45.8349 141.078C48.605 142.678 53.0968 142.678 55.8735 141.078ZM47.487 140.082C46.7041 139.63 46.7041 138.893 47.487 138.441C47.9274 138.217 48.4145 138.1 48.9086 138.1C49.4026 138.1 49.8897 138.217 50.3301 138.441C51.113 138.893 51.113 139.63 50.3301 140.082C49.8886 140.306 49.4002 140.423 48.9048 140.423C48.4095 140.422 47.9213 140.304 47.4804 140.078L47.487 140.082Z" fill="#F0F0F0"/>
<g opacity="0.1">
<path d="M50.8542 141.463C49.2528 141.498 47.669 141.123 46.2529 140.374C45.1913 139.76 44.5942 138.959 44.5942 138.182C44.5942 137.405 45.2013 136.602 46.2529 135.991C47.6679 135.238 49.2521 134.861 50.8542 134.895C52.4572 134.859 54.0427 135.235 55.4588 135.988C56.5204 136.599 57.1175 137.399 57.1175 138.179C57.1175 138.959 56.5071 139.756 55.4588 140.371C54.0421 141.122 52.457 141.498 50.8542 141.463ZM50.8542 135.154C49.2936 135.122 47.7506 135.49 46.3723 136.223C45.3771 136.791 44.8331 137.508 44.8331 138.196C44.8331 138.883 45.3937 139.597 46.3723 140.165C47.7534 140.888 49.2962 141.246 50.8542 141.204C52.4126 141.24 53.9545 140.877 55.3328 140.148C56.3114 139.584 56.8754 138.863 56.8754 138.179C56.8754 137.495 56.3114 136.775 55.3328 136.207C53.9542 135.479 52.4124 135.117 50.8542 135.154Z" fill="black"/>
</g>
<path opacity="0.15" d="M67.1064 127.657V127.853L67.2756 127.955L55.0409 135.025L54.6958 134.829L67.1064 127.657Z" fill="black"/>
<path opacity="0.15" d="M67.1063 127.657V127.853L54.8318 134.905" fill="black"/>
<path d="M113.557 102.103C110.489 102.627 107.586 107.86 107.025 113.16C106.771 116.093 106.904 119.047 107.42 121.945L108.1 122.44L108.482 122.719L109.809 123.679L110.628 124.276C110.543 122.077 110.766 119.876 111.292 117.738C111.594 116.548 112.034 115.397 112.602 114.308C113.717 112.167 115.372 110.078 116.085 108.601C117.873 104.922 116.417 101.614 113.557 102.103Z" fill="#08509F"/>
<path opacity="0.65" d="M113.557 102.103C110.489 102.627 107.586 107.86 107.025 113.16C106.771 116.093 106.904 119.047 107.42 121.945L108.1 122.44L108.482 122.719L109.809 123.679L110.628 124.276C110.543 122.077 110.766 119.876 111.292 117.738C111.594 116.548 112.034 115.397 112.602 114.308C113.717 112.167 115.372 110.078 116.085 108.601C117.873 104.922 116.417 101.614 113.557 102.103Z" fill="white"/>
<path d="M114.324 104.228C111.006 107.266 108.02 114.574 108.482 122.726L108.1 122.447C107.719 114.299 110.737 107 114.071 103.952C114.089 103.932 114.11 103.917 114.134 103.906C114.158 103.895 114.184 103.889 114.21 103.889C114.237 103.889 114.263 103.895 114.286 103.905C114.31 103.916 114.332 103.932 114.349 103.951C114.367 103.971 114.38 103.994 114.388 104.019C114.396 104.044 114.398 104.071 114.395 104.097C114.392 104.123 114.384 104.148 114.37 104.171C114.357 104.193 114.338 104.213 114.317 104.228H114.324Z" fill="white"/>
<path d="M116.284 111.984C114.35 112.721 112.967 114.169 111.291 117.738C110.438 119.611 109.936 121.624 109.812 123.679L110.631 124.276L111.013 124.552L111.361 124.801L111.845 125.16C112.293 123.925 112.989 122.795 113.889 121.839C116.576 118.755 119.99 116.679 120.421 114.82C120.939 112.588 119.409 110.802 116.284 111.984Z" fill="#08509F"/>
<path opacity="0.3" d="M116.284 111.984C114.35 112.721 112.967 114.169 111.291 117.738C110.438 119.611 109.936 121.624 109.812 123.679L110.631 124.276L111.013 124.552L111.361 124.801L111.845 125.16C112.293 123.925 112.989 122.795 113.889 121.839C116.576 118.755 119.99 116.679 120.421 114.82C120.939 112.588 119.409 110.802 116.284 111.984Z" fill="white"/>
<path d="M117.07 114.694C117.114 114.67 117.147 114.631 117.162 114.584C117.176 114.537 117.172 114.485 117.15 114.441C117.139 114.42 117.123 114.401 117.104 114.385C117.085 114.369 117.063 114.358 117.04 114.351C117.016 114.344 116.992 114.341 116.967 114.344C116.943 114.346 116.919 114.353 116.898 114.365C114.791 115.474 111.514 118.642 110.422 124.13L110.631 124.283L110.764 124.379C111.829 118.887 115.143 115.706 117.07 114.694Z" fill="white"/>
<path d="M97.146 147.104C109.896 147.104 120.232 141.131 120.232 133.763C120.232 126.395 109.896 120.421 97.146 120.421C84.3959 120.421 74.0599 126.395 74.0599 133.763C74.0599 141.131 84.3959 147.104 97.146 147.104Z" fill="#E0E0E0"/>
<path d="M82.8145 125.561C83.1695 120.634 82.6188 116.859 83.0269 109.169C83.0633 107.196 83.1363 105.084 83.269 103.208C83.7102 96.8996 84.6856 94.738 84.7751 93.5194C84.7751 93.5194 84.941 83.6976 85.3524 69.8846C85.5481 63.3865 87.4291 61.4175 88.9319 57.9676H106.8C108.79 66.4779 109.364 85.039 109.304 93.8282C109.274 98.2975 107.47 122.221 107.433 122.772C107.307 124.725 107.476 125.495 108.239 126.315C109.842 128.035 112.161 129.672 114.168 131.17C113.879 131.937 111.464 131.91 110.27 131.326C108.707 130.508 107.217 129.557 105.818 128.483C104.159 127.261 102.062 126.282 102.036 124.423C102.029 124.31 102.01 124.199 101.979 124.09C101.95 123.008 99.4217 107.004 99.2127 103.291C99.0302 100.097 99.4183 94.6815 99.4183 94.6815L97.3615 81.1541C97.3615 81.1541 96.0909 89.1497 94.8071 94.6085C93.7654 99.0346 92.0337 106.615 90.866 112.084C89.7347 118.393 88.076 122.865 87.7907 126.03C87.7011 126.783 86.8519 134.171 86.5002 135.865C86.1486 137.558 82.4629 137.601 82.224 134.689C82.0814 132.743 82.7449 126.488 82.8145 125.561Z" fill="#FFBDA7"/>
<path d="M97.3616 81.1376L98.8644 71.3822C98.8644 71.3822 104.683 70.6915 106.8 68.6561C106.8 68.6561 104.146 72.4248 100.185 73.0391L98.526 81.1276L99.4018 94.5487L97.3616 81.1376Z" fill="#F28F8F"/>
<path d="M117.578 133.115C117.681 133.115 117.847 134.238 117.296 134.722C116.662 135.284 114.795 136.21 112.32 135.915C109.845 135.619 108.482 134.865 107.483 134.045C106.485 133.225 105.078 132.053 103.95 131.83C102.908 131.611 101.77 131.166 101.432 130.834C101.094 130.502 101.127 129.081 101.127 129.081L117.578 133.115Z" fill="#263238"/>
<path d="M101.93 123.549C101.93 123.549 101.741 123.549 101.681 123.881C101.608 124.276 101.538 125.425 101.382 126.076C101.163 126.979 101.031 128.829 101.177 129.563C101.323 130.296 103.025 130.788 104.116 131.19C105.4 131.736 106.593 132.473 107.656 133.378C108.833 134.327 111.305 135.264 112.91 135.27C115.382 135.27 116.971 134.606 117.455 133.7C118.056 132.594 117.568 131.963 114.718 130.678C114.178 130.436 112.28 129.35 111.633 128.942C110.947 128.524 110.297 128.049 109.689 127.524C109.382 127.257 109.09 126.973 108.813 126.674C108.526 126.41 108.281 126.103 108.087 125.764C108.054 125.691 108.031 125.601 108.001 125.525C107.917 125.31 107.852 125.088 107.808 124.861C107.758 124.625 107.729 124.283 107.5 124.144C107.179 124.016 106.829 123.978 106.488 124.034C106.12 124.064 105.754 124.12 105.393 124.2C104.978 124.3 104.494 124.343 104.252 124.738C104.09 125.056 104.014 125.411 104.03 125.767C104.03 125.933 104.03 126.099 104.03 126.265C104.03 126.338 104.06 126.465 103.96 126.435C103.861 126.405 103.758 126.162 103.721 126.079C103.642 125.894 103.588 125.694 103.502 125.515C103.405 125.302 103.284 125.102 103.141 124.917C103.008 124.749 102.857 124.596 102.689 124.462C102.519 124.37 102.355 124.267 102.198 124.154C102.052 123.983 101.958 123.773 101.93 123.549Z" fill="#37474F"/>
<path d="M115.18 130.911C111.607 131.196 110.505 133.418 110.369 134.786C111.186 135.082 112.043 135.253 112.91 135.29C115.382 135.29 117.074 134.626 117.555 133.72C118.122 132.667 117.721 131.837 115.18 130.911Z" fill="#FAFAFA"/>
<path d="M109.822 130.994C109.782 130.995 109.743 130.982 109.712 130.957C109.676 130.928 109.653 130.886 109.647 130.84C109.641 130.794 109.654 130.748 109.683 130.711C110.095 130.276 110.595 129.934 111.15 129.708C111.705 129.482 112.302 129.377 112.9 129.4C112.947 129.405 112.989 129.428 113.019 129.464C113.049 129.5 113.063 129.546 113.06 129.592C113.058 129.615 113.051 129.638 113.04 129.658C113.029 129.679 113.014 129.697 112.996 129.711C112.979 129.726 112.958 129.737 112.936 129.743C112.913 129.749 112.89 129.751 112.867 129.748C112.327 129.732 111.789 129.828 111.288 130.032C110.787 130.235 110.334 130.542 109.958 130.931C109.941 130.95 109.92 130.966 109.896 130.976C109.873 130.987 109.848 130.993 109.822 130.994Z" fill="#F0F0F0"/>
<path d="M108.289 130.114C108.249 130.113 108.211 130.099 108.18 130.074C108.162 130.06 108.147 130.043 108.136 130.023C108.124 130.003 108.117 129.981 108.115 129.958C108.112 129.936 108.115 129.913 108.121 129.891C108.128 129.869 108.139 129.849 108.153 129.832C108.564 129.395 109.063 129.052 109.618 128.826C110.173 128.6 110.769 128.495 111.368 128.52C111.414 128.525 111.457 128.548 111.486 128.584C111.516 128.62 111.531 128.666 111.527 128.713C111.522 128.759 111.499 128.801 111.463 128.83C111.427 128.859 111.381 128.873 111.335 128.869C110.794 128.851 110.256 128.947 109.755 129.15C109.254 129.353 108.801 129.659 108.425 130.047C108.409 130.068 108.389 130.085 108.365 130.097C108.341 130.108 108.315 130.114 108.289 130.114Z" fill="#F0F0F0"/>
<path d="M106.836 129.104C106.803 129.104 106.771 129.094 106.743 129.077C106.715 129.059 106.693 129.034 106.679 129.004C106.665 128.974 106.659 128.941 106.663 128.908C106.667 128.876 106.68 128.845 106.7 128.819C107.112 128.384 107.612 128.042 108.166 127.817C108.721 127.591 109.317 127.487 109.915 127.511C109.939 127.51 109.964 127.515 109.986 127.525C110.009 127.535 110.029 127.55 110.045 127.568C110.062 127.586 110.075 127.607 110.082 127.631C110.09 127.654 110.093 127.679 110.091 127.703C110.088 127.728 110.081 127.751 110.069 127.773C110.057 127.794 110.04 127.813 110.021 127.828C110.001 127.842 109.978 127.853 109.954 127.858C109.93 127.864 109.906 127.864 109.882 127.859C109.341 127.842 108.804 127.939 108.303 128.142C107.802 128.345 107.349 128.65 106.972 129.038C106.956 129.058 106.935 129.075 106.912 129.087C106.888 129.098 106.862 129.104 106.836 129.104Z" fill="#F0F0F0"/>
<path d="M105.43 128.095C105.39 128.094 105.352 128.082 105.32 128.058C105.284 128.03 105.26 127.988 105.255 127.942C105.249 127.896 105.262 127.849 105.29 127.813C105.954 126.939 107.506 126.355 108.803 126.485C108.85 126.49 108.892 126.513 108.921 126.549C108.95 126.585 108.964 126.631 108.959 126.677C108.957 126.7 108.951 126.722 108.94 126.742C108.929 126.762 108.915 126.78 108.897 126.795C108.88 126.809 108.859 126.82 108.838 126.827C108.816 126.833 108.793 126.835 108.77 126.833C107.599 126.717 106.163 127.255 105.566 128.029C105.55 128.049 105.529 128.066 105.505 128.078C105.482 128.089 105.456 128.095 105.43 128.095Z" fill="#F0F0F0"/>
<path d="M87.658 137.173C87.5585 138.86 87.2964 139.979 86.6993 140.968C86.1021 141.958 84.9742 142.27 83.8297 141.964C82.6852 141.659 81.2255 140.902 80.8971 139.447C80.5686 137.993 80.3795 136.994 80.6383 135.43L87.658 137.173Z" fill="#263238"/>
<path d="M82.8545 124.957C82.3834 124.994 82.2441 127.261 81.972 129.529C81.6801 131.96 80.9569 132.963 80.6981 134.958C80.3996 137.236 80.7777 138.252 81.5739 139.63C82.3701 141.008 85.1933 142.356 86.5833 140.384C87.7178 138.777 87.7643 136.994 87.6614 134.719C87.6004 132.798 87.6503 130.874 87.8107 128.958C87.9036 127.251 88.2818 125.535 87.8704 125.346C87.8406 125.595 87.8107 125.913 87.7776 126.159C87.7602 126.467 87.709 126.772 87.625 127.069C87.5752 127.195 87.4723 127.328 87.4292 127.122C87.406 126.981 87.406 126.838 87.4292 126.697C87.4989 126.069 87.1804 126.016 87.0112 125.97C86.2895 125.828 85.5609 125.724 84.8283 125.658C84.4667 125.634 83.226 125.581 83.0635 125.784C82.9594 125.99 82.9059 126.217 82.9075 126.448C82.8677 126.78 82.7881 127.042 82.7782 126.933C82.7549 126.687 82.8014 126.05 82.808 125.897C82.8147 125.744 82.8379 125.548 82.8412 125.399C82.8445 125.249 82.8445 125.103 82.8545 124.957Z" fill="#37474F"/>
<path d="M80.5654 136.276C80.4792 137.495 80.7887 138.708 81.4479 139.736C82.2441 141.114 85.2928 142.469 86.6828 140.497C87.3761 139.517 87.5619 138.355 87.6548 137.176C86.8221 135.652 81.8791 134.981 80.5654 136.276Z" fill="#FAFAFA"/>
<path d="M86.6297 134.696C86.6101 134.7 86.5897 134.7 86.57 134.696C86.5534 134.696 84.3739 133.786 82.2574 134.278C82.2181 134.277 82.1802 134.264 82.1495 134.239C82.1188 134.215 82.0972 134.181 82.088 134.143C82.0789 134.104 82.0827 134.064 82.099 134.029C82.1152 133.993 82.143 133.964 82.1777 133.946C84.4203 133.428 86.643 134.354 86.726 134.39C86.762 134.409 86.7905 134.439 86.8067 134.477C86.8229 134.514 86.8258 134.555 86.8149 134.594C86.8039 134.633 86.7799 134.668 86.7468 134.691C86.7136 134.714 86.6735 134.725 86.6331 134.722L86.6297 134.696Z" fill="#F0F0F0"/>
<path d="M82.36 132.571C82.3221 132.566 82.2869 132.548 82.26 132.521C82.2331 132.494 82.2161 132.458 82.2115 132.42C82.2069 132.382 82.2152 132.344 82.2348 132.311C82.2545 132.278 82.2845 132.253 82.3202 132.239C84.4301 131.522 86.7722 132.597 86.8618 132.644C86.8822 132.654 86.9003 132.669 86.9151 132.686C86.9299 132.704 86.941 132.724 86.9478 132.746C86.9546 132.768 86.9569 132.791 86.9547 132.814C86.9525 132.837 86.9457 132.859 86.9348 132.88C86.9123 132.92 86.8754 132.95 86.8315 132.963C86.7877 132.977 86.7404 132.973 86.6992 132.953C86.6793 132.953 84.3969 131.9 82.433 132.568C82.4094 132.575 82.3842 132.576 82.36 132.571Z" fill="#F0F0F0"/>
<path d="M82.4331 130.964C82.4004 130.96 82.3693 130.947 82.3435 130.927C82.3177 130.906 82.2982 130.879 82.2872 130.848C82.2793 130.826 82.2758 130.803 82.2769 130.78C82.278 130.757 82.2837 130.735 82.2936 130.714C82.3035 130.693 82.3174 130.675 82.3345 130.659C82.3516 130.644 82.3716 130.633 82.3933 130.625C84.7155 129.792 86.9349 130.957 87.0179 131.017C87.0375 131.029 87.0546 131.044 87.0682 131.063C87.0818 131.081 87.0916 131.102 87.0972 131.124C87.1027 131.146 87.1038 131.169 87.1005 131.192C87.0971 131.215 87.0893 131.236 87.0776 131.256C87.0658 131.276 87.0503 131.293 87.0319 131.306C87.0136 131.32 86.9927 131.33 86.9705 131.335C86.9483 131.341 86.9253 131.342 86.9027 131.339C86.88 131.335 86.8583 131.327 86.8387 131.316C86.8188 131.316 84.6691 130.18 82.5094 130.954C82.4853 130.964 82.459 130.967 82.4331 130.964Z" fill="#F0F0F0"/>
<path d="M82.5492 129.387C82.5169 129.384 82.4861 129.373 82.4602 129.353C82.4343 129.334 82.4146 129.307 82.4032 129.277C82.3948 129.255 82.3907 129.232 82.3914 129.209C82.392 129.186 82.3972 129.163 82.4068 129.142C82.4164 129.121 82.4302 129.102 82.4472 129.087C82.4643 129.071 82.4843 129.059 82.5061 129.051C84.679 128.234 87.0742 129.44 87.1505 129.489C87.1903 129.513 87.2192 129.551 87.231 129.596C87.2428 129.641 87.2365 129.688 87.2135 129.729C87.2025 129.749 87.1874 129.767 87.1693 129.781C87.1512 129.796 87.1304 129.806 87.1081 129.812C87.0859 129.819 87.0626 129.82 87.0396 129.817C87.0167 129.814 86.9946 129.807 86.9747 129.795C86.9548 129.795 84.6325 128.62 82.6155 129.377C82.5943 129.384 82.5718 129.388 82.5492 129.387Z" fill="#EBEBEB"/>
<path d="M86.6231 58.0241C85.1435 62.2576 83.9691 64.9339 84.0587 76.4225C84.1516 88.8276 84.3706 91.2416 84.3274 92.6262C84.2843 94.0108 83.4782 96.4878 82.7682 103.311C82.0583 110.135 82.8976 118.253 82.8976 118.253C82.8976 118.253 83.3853 119.352 85.9928 119.581C88.3979 119.794 89.5889 118.891 89.5889 118.891C89.5889 118.891 92.8864 105.609 93.7987 101.495C94.711 97.381 97.3617 83.8702 97.3617 83.8702L98.9341 94.8276C98.9341 94.8276 98.201 98.593 98.9341 104.576C99.6673 110.56 100.961 116.689 100.961 116.689C102.142 117.11 103.387 117.321 104.64 117.314C105.777 117.332 106.898 117.04 107.881 116.467C107.881 116.467 109.948 98.6627 109.948 91.8791C109.948 85.0955 109.374 68.1414 107.241 58.1004L86.6231 58.0241Z" fill="#37474F"/>
<path d="M99.508 70.8442L97.3617 83.8868L98.9341 94.8442L98.2706 83.7374L100.188 73.0357C101.82 72.6439 105.539 70.6815 106.561 67.8824C104.04 70.5222 99.508 70.8442 99.508 70.8442ZM88.869 105.948C88.2365 109.49 87.6482 113.031 87.1041 116.573C87.9246 113.076 88.6987 109.571 89.4263 106.061C90.1628 102.548 90.8595 99.0412 91.5495 95.505C92.2395 91.9688 92.6277 88.3893 92.9727 84.8166C93.3177 81.2438 93.5864 77.6644 93.802 74.0816C93.3077 77.6345 92.8632 81.1973 92.4154 84.7535C91.9675 88.3096 91.4931 91.8592 90.8396 95.3788C90.186 98.8985 89.4927 102.418 88.869 105.948ZM107.4 88.1071C107.47 89.6611 107.563 91.225 107.536 92.7557C107.51 94.2864 107.41 95.8636 107.334 97.4209L107.098 102.103C106.935 105.222 106.811 108.345 106.727 111.473C107.092 108.374 107.402 105.263 107.659 102.139C107.914 99.0213 108.153 95.9134 108.259 92.7657C108.259 89.6046 107.981 86.5 107.702 83.3788C107.423 80.2576 107.039 77.1564 106.558 74.0816L107.141 83.4286C107.228 84.9925 107.331 86.5498 107.4 88.1071Z" fill="#263238"/>
<path d="M102.596 37.4009C106.78 37.6433 108.05 40.2399 110.037 42.8165C111.607 44.8686 114.858 49.5603 114.858 49.5603C114.858 49.5603 121.357 46.4424 122.422 45.4231C123.151 44.7225 122.929 44.427 124.13 43.2382C124.976 42.4081 125.948 41.9101 126.432 41.1563C126.814 40.5653 127.736 41.1962 127.182 42.4081C126.999 42.7604 126.783 43.094 126.535 43.4043C127.022 43.1998 127.47 42.9147 127.862 42.5609C128.801 41.5647 129.083 40.4524 130.403 40.0174C130.961 39.8315 131.156 40.2067 131.03 40.6815C131.127 40.7018 131.218 40.7423 131.298 40.8002C131.378 40.8582 131.445 40.9323 131.494 41.0178C131.544 41.1033 131.575 41.1982 131.585 41.2965C131.595 41.3947 131.585 41.494 131.554 41.588C131.906 41.6146 132.065 42.2687 131.979 42.4845C132.195 42.6937 132.623 43.3511 131.647 44.9881C131.142 45.7884 130.547 46.5292 129.876 47.1962C128.946 47.7106 127.985 48.1675 127 48.5642C125.899 48.9858 124.86 49.5543 123.911 50.2543C122.528 51.194 119.104 53.9466 115.969 55.899C113.365 57.5194 112.24 56.0683 110.396 53.8337C109.178 52.3561 105.214 47.4851 105.214 47.4851C103.476 44.3971 102.026 39.6256 102.596 37.4009Z" fill="#B5816F"/>
<path d="M127.889 45.3467C126.091 45.0645 124.402 46.1735 124.123 47.6378C124.046 47.2439 124.086 46.836 124.237 46.4644C124.389 46.0927 124.646 45.7735 124.976 45.5459C125.593 45.0711 126.887 44.9117 127.889 45.3467Z" fill="#B4715A"/>
<path d="M92.4418 18.946C91.6709 18.561 90.8234 18.3546 89.962 18.3419C89.1006 18.3293 88.2474 18.5108 87.4656 18.873C85.3258 19.9754 84.9178 21.1707 84.7088 23.6909C84.3936 27.4762 84.1249 28.6151 83.6671 29.4751C83.4724 29.8489 83.2056 30.1804 82.8822 30.4506C82.5588 30.7207 82.1851 30.9241 81.7828 31.049C82.1017 31.2472 82.4657 31.3609 82.8406 31.3795C83.2155 31.3981 83.589 31.3209 83.9259 31.1552C83.5278 32.9715 82.9837 34.4989 83.4382 36.428C83.7434 37.7263 84.4069 39.2006 85.3955 40.137C86.2381 40.9372 87.449 41.1895 88.4675 41.6478C87.804 40.1602 87.4357 38.759 87.9267 37.0988C88.4675 35.2692 89.7115 33.7186 90.2755 31.8724C91.0551 29.319 91.9342 26.676 92.183 24.0097C92.3543 22.3272 92.4407 20.6372 92.4418 18.946Z" fill="#263238"/>
<path d="M92.7935 18.7834C92.5546 18.3916 91.0784 18.1923 89.9405 18.9826C88.8026 19.7728 87.8771 21.1176 88.6965 22.2034C89.4694 23.2228 94.356 20.2842 92.7935 18.7834Z" fill="#08509F"/>
<path d="M84.4038 65.8304C85.2962 59.3224 86.4673 56.9416 86.673 56.158C87.1905 54.1823 85.9398 50.666 85.5882 48.6339C84.8218 44.2078 86.3777 38.9217 87.3928 38.0086C87.3928 38.0086 88.5573 37.6765 89.5392 37.4906C90.3155 37.3312 90.8927 37.1154 91.9411 36.9527C94.7343 36.5177 97.1594 36.5443 98.0352 36.7269C98.7285 36.873 102.597 37.391 102.6 37.391C103.86 38.491 104.921 39.7995 105.738 41.2593C106.909 43.2515 107.895 44.5531 107.974 49.2283C108.067 54.7236 108.26 60.0462 108.445 65.7474C103.977 68.6428 90.3454 69.1242 84.4038 65.8304Z" fill="#455A64"/>
<path d="M103.734 18.6505C102.816 18.2603 101.8 18.1629 100.825 18.3716C98.9507 17.3489 96.4726 17.0434 94.0177 17.5349C92.1831 17.9001 89.8277 19.0124 89.6353 21.6455C87.2169 22.4657 86.1222 25.7562 87.7079 29.1995C88.8557 31.7031 91.0652 32.9084 92.0869 34.4358L99.8696 28.5221C100.769 29.5515 101.976 29.4718 103.585 27.0545C106.558 22.5852 105.134 19.3976 103.734 18.6505Z" fill="#37474F"/>
<path d="M89.642 26.0651C91.1913 25.3446 91.8116 26.9649 91.8116 26.9649C92.8434 27.5759 93.5599 26.4303 93.5201 25.059C93.4869 23.9168 93.8021 22.0706 94.9798 21.5958C95.8556 21.2438 96.2338 21.4497 98.2143 21.8415C99.1697 22.0274 99.4583 21.8415 100.755 21.2704C101.887 20.7624 103.194 21.9046 103.343 23.4154C103.446 24.468 103.343 25.3612 103.416 26.0252C103.532 26.7601 103.611 27.5004 103.652 28.2433C103.652 32.7923 102.743 33.639 101.887 34.3396C101.223 34.8941 100.145 35.2626 98.6223 35.173V37.0723C98.6223 37.0723 100.311 40.2798 100.543 43.1619C97.1693 42.1359 93.9447 39.2239 91.8017 37.2715L91.7022 30.883C91.3206 31.3778 90.1197 31.5903 89.2638 30.551C88.1558 29.1796 88.1591 26.7557 89.642 26.0651Z" fill="#B5816F"/>
<path d="M98.6223 35.173C97.1394 35.0567 95.7295 34.7612 94.6878 34.1337C94.0147 33.7393 93.4654 33.1642 93.1021 32.4734C93.1021 32.4734 93.1551 33.619 94.5717 34.645C95.8721 35.5814 98.6223 35.7872 98.6223 35.7872V35.173Z" fill="#B4715A"/>
<path d="M98.6389 25.474L99.0702 29.681L101.303 28.5952L98.6389 25.474Z" fill="#B4715A"/>
<path d="M97.156 30.4347L99.3057 30.9726C99.276 31.1162 99.2177 31.2524 99.1343 31.373C99.0509 31.4936 98.9441 31.5961 98.8203 31.6745C98.6965 31.7529 98.5581 31.8055 98.4135 31.8293C98.269 31.853 98.1211 31.8474 97.9787 31.8127C97.6894 31.7352 97.4417 31.548 97.2881 31.2907C97.1345 31.0334 97.0871 30.7264 97.156 30.4347Z" fill="#B16668"/>
<path d="M97.8593 30.9992C97.64 30.8939 97.3898 30.8727 97.156 30.9394C97.1983 31.1472 97.2977 31.3391 97.4431 31.4934C97.5884 31.6476 97.7739 31.7582 97.9787 31.8127C98.1286 31.844 98.2833 31.844 98.4332 31.8127C98.4156 31.6391 98.3536 31.473 98.253 31.3305C98.1525 31.1879 98.0168 31.0738 97.8593 30.9992Z" fill="#F28F8F"/>
<path d="M102.5 26.3174C102.643 26.6694 102.398 26.8022 102.056 26.9383C101.714 27.0745 101.392 27.1641 101.263 26.8088C101.231 26.7275 101.215 26.6406 101.216 26.5532C101.218 26.4657 101.236 26.3793 101.271 26.299C101.305 26.2187 101.355 26.146 101.418 26.085C101.481 26.0241 101.555 25.9761 101.636 25.9439C101.718 25.9116 101.804 25.8957 101.892 25.897C101.979 25.8983 102.065 25.9168 102.146 25.9515C102.226 25.9862 102.299 26.0364 102.359 26.0991C102.42 26.1619 102.468 26.2361 102.5 26.3174Z" fill="#263238"/>
<path d="M101.303 26.065C101.455 25.9715 101.621 25.9021 101.794 25.8592C101.961 25.8112 102.135 25.7943 102.308 25.8094C102.491 25.8214 102.671 25.8652 102.839 25.9389C102.839 25.9389 102.865 25.982 102.839 25.9787C102.681 25.9627 102.523 25.955 102.364 25.9555C102.17 25.9659 101.978 25.9982 101.791 26.0518C101.565 26.1122 101.349 26.2051 101.15 26.3274C101.084 26.3639 100.955 26.4436 100.941 26.4535C100.928 26.4635 100.905 26.4203 100.915 26.4037C101.016 26.2618 101.149 26.1458 101.303 26.065Z" fill="#263238"/>
<path d="M101.323 24.2322L102.889 24.6705C102.942 24.4567 102.912 24.2304 102.803 24.0387C102.694 23.8469 102.516 23.7046 102.305 23.6412C102.201 23.613 102.094 23.606 101.987 23.6207C101.881 23.6354 101.779 23.6715 101.688 23.7267C101.596 23.7819 101.516 23.8552 101.454 23.9421C101.391 24.029 101.346 24.1276 101.323 24.2322Z" fill="#263238"/>
<path d="M95.8887 26.6494C95.7925 27.0213 96.0546 27.1176 96.4096 27.2106C96.7645 27.3036 97.0731 27.35 97.1792 26.9782C97.2047 26.8923 97.2126 26.8021 97.2024 26.713C97.1922 26.624 97.1641 26.538 97.1198 26.4601C97.0754 26.3822 97.0158 26.3141 96.9445 26.2599C96.8732 26.2057 96.7917 26.1666 96.7048 26.1447C96.5298 26.1047 96.3461 26.1352 96.1934 26.2297C96.0407 26.3241 95.9313 26.4749 95.8887 26.6494Z" fill="#263238"/>
<path d="M97.0465 26.2443C96.8832 26.1728 96.7097 26.1268 96.5323 26.1082C96.3614 26.0749 96.1857 26.0749 96.0148 26.1082C95.8342 26.1441 95.6613 26.2116 95.5039 26.3074C95.5039 26.3074 95.484 26.3539 95.5039 26.3472C95.6433 26.3207 95.766 26.2875 95.9684 26.2642C96.1631 26.2476 96.3591 26.2543 96.5522 26.2842C96.7809 26.3171 97.0041 26.3807 97.2157 26.4734C97.2854 26.5033 97.4214 26.5631 97.4347 26.573C97.448 26.583 97.4679 26.5332 97.4579 26.5166C97.3414 26.3979 97.2012 26.3052 97.0465 26.2443Z" fill="#263238"/>
<path d="M96.4327 24.5044L95.0195 25.2814C94.9185 25.0862 94.8965 24.8596 94.9584 24.6486C95.0202 24.4377 95.1609 24.2588 95.3512 24.1491C95.4452 24.0997 95.5482 24.0697 95.654 24.0609C95.7598 24.0521 95.8662 24.0646 95.9671 24.0977C96.068 24.1309 96.1611 24.1839 96.2411 24.2538C96.3211 24.3237 96.3863 24.4089 96.4327 24.5044Z" fill="#263238"/>
<path d="M126.426 39.4696C120.574 36.9062 111.663 37.899 106.521 41.6876C104.365 43.2748 103.021 44.344 102.842 46.1038L103.041 47.9001C103.194 49.2283 103.914 50.51 105.184 51.5924L81.899 66.8033L82.098 68.5963L85.0406 69.8846L92.7536 69.0246L95.5934 66.9328L95.4043 65.2394L97.6701 63.619L100.988 62.9549L102.242 62.0352L102.042 59.0103L104.365 57.2969L108.1 57.7153L112.536 54.448C117.774 55.1121 123.815 53.8404 127.686 50.9782C130.267 49.0789 131.409 46.8376 131.17 44.7524L130.971 42.9759C130.516 41.1298 129.053 40.6218 126.426 39.4696ZM123.549 44.9948C122.093 46.0673 119.569 46.3495 117.91 45.6223C116.251 44.8952 116.092 43.4375 117.548 42.365C119.005 41.2925 121.529 41.0103 123.188 41.7374C124.847 42.4646 125.019 43.9156 123.549 44.9948Z" fill="#08509F"/>
<path opacity="0.2" d="M126.426 39.4696C120.574 36.9062 111.663 37.899 106.521 41.6876C104.365 43.2748 103.021 44.344 102.842 46.1038L103.041 47.9001C103.194 49.2283 103.914 50.51 105.184 51.5924L81.899 66.8033L82.098 68.5963L85.0406 69.8846L92.7536 69.0246L95.5934 66.9328L95.4043 65.2394L97.6701 63.619L100.988 62.9549L102.242 62.0352L102.042 59.0103L104.365 57.2969L108.1 57.7153L112.536 54.448C117.774 55.1121 123.815 53.8404 127.686 50.9782C130.267 49.0789 131.409 46.8376 131.17 44.7524L130.971 42.9759C130.516 41.1298 129.053 40.6218 126.426 39.4696ZM123.549 44.9948C122.093 46.0673 119.569 46.3495 117.91 45.6223C116.251 44.8952 116.092 43.4375 117.548 42.365C119.005 41.2925 121.529 41.0103 123.188 41.7374C124.847 42.4646 125.019 43.9156 123.549 44.9948Z" fill="black"/>
<path d="M126.226 37.6765C120.374 35.1131 111.464 36.1059 106.322 39.8945C102.095 43.0091 101.734 47.0368 104.995 49.7994L81.9086 66.8032L84.8512 68.0915L92.5643 67.2316L95.404 65.143L95.0192 63.5857L97.4774 61.8292L100.795 61.1652L102.049 60.2421L101.85 57.2172L104.172 55.5038L107.904 55.9222L112.343 52.6549C117.581 53.319 123.622 52.0473 127.494 49.1851C132.649 45.3898 132.075 40.2399 126.226 37.6765ZM123.363 43.2017C121.907 44.2742 119.382 44.5564 117.724 43.8292C116.065 43.1021 115.906 41.6444 117.362 40.5719C118.819 39.4994 121.343 39.2172 123.002 39.9443C124.661 40.6715 124.82 42.1292 123.363 43.2017Z" fill="#08509F"/>
<path opacity="0.3" d="M126.226 37.6765C120.374 35.1131 111.464 36.1059 106.322 39.8945C102.095 43.0091 101.734 47.0368 104.995 49.7994L81.9086 66.8032L84.8512 68.0915L92.5643 67.2316L95.404 65.143L95.0192 63.5857L97.4774 61.8292L100.795 61.1652L102.049 60.2421L101.85 57.2172L104.172 55.5038L107.904 55.9222L112.343 52.6549C117.581 53.319 123.622 52.0473 127.494 49.1851C132.649 45.3898 132.075 40.2399 126.226 37.6765ZM123.363 43.2017C121.907 44.2742 119.382 44.5564 117.724 43.8292C116.065 43.1021 115.906 41.6444 117.362 40.5719C118.819 39.4994 121.343 39.2172 123.002 39.9443C124.661 40.6715 124.82 42.1292 123.363 43.2017Z" fill="white"/>
<g opacity="0.2">
<path d="M102.942 46.6217L116.583 42.9195C116.125 42.1857 116.367 41.2825 117.353 40.5586C118.809 39.4862 121.333 39.2039 122.992 39.9311C123.468 40.1148 123.874 40.445 124.15 40.8741L129.126 39.526C128.266 38.7444 127.28 38.1145 126.21 37.6632C126.038 37.5902 125.858 37.5271 125.683 37.4607L103.224 43.5304C102.807 44.5055 102.708 45.5873 102.942 46.6217Z" fill="white"/>
<path d="M130.493 45.7551C130.912 44.912 131.084 43.9678 130.991 43.031C130.898 42.0942 130.542 41.2027 129.965 40.459L124.296 41.993C124.127 42.4876 123.799 42.9125 123.364 43.2017C121.907 44.2742 119.383 44.5564 117.724 43.8292L117.644 43.7894L103.313 47.6643C103.716 48.4883 104.291 49.2163 104.998 49.7993L98.8676 54.3018L130.493 45.7551Z" fill="white"/>
</g>
<path d="M117.638 51.0512C114.158 51.4397 110.824 51.0313 108.253 49.9056C106.01 48.9095 104.627 47.4718 104.454 45.9211C104.282 44.3705 105.314 42.6572 107.284 41.2028C109.547 39.5426 112.708 38.407 116.188 38.0219C119.668 37.6367 122.999 38.0385 125.573 39.1674C127.812 40.1635 129.196 41.6013 129.368 43.1519C129.541 44.7025 128.526 46.4159 126.535 47.8669C124.276 49.5338 121.115 50.6627 117.638 51.0512ZM116.251 38.5299C112.861 38.9084 109.785 40.0041 107.593 41.6179C105.775 42.946 104.816 44.51 104.969 45.868C105.121 47.2261 106.395 48.5244 108.465 49.4375C110.956 50.5299 114.194 50.9217 117.588 50.5432C120.982 50.1646 124.054 49.0689 126.243 47.4585C128.065 46.1303 129.02 44.5664 128.871 43.205C128.721 41.8437 127.444 40.5487 125.374 39.6356C122.886 38.5465 119.635 38.1514 116.251 38.5299Z" fill="#08509F"/>
<path opacity="0.1" d="M122.823 51.5526L123.022 53.3456C119.655 54.4786 116.08 54.8505 112.552 54.4347L112.353 52.6416C115.881 53.0575 119.456 52.6855 122.823 51.5526Z" fill="black"/>
<path opacity="0.1" d="M107.918 55.9156L108.117 57.7086L104.381 57.2902L104.182 55.4972L107.918 55.9156Z" fill="black"/>
<path opacity="0.1" d="M101.857 57.2106L102.056 59.0036L102.255 62.0252L102.056 60.2355L101.857 57.2106Z" fill="black"/>
<path opacity="0.1" d="M100.802 61.1586L101.001 62.9483L97.6701 63.619L97.4711 61.826L100.802 61.1586Z" fill="black"/>
<path opacity="0.1" d="M92.552 67.2353L84.8401 68.0943L85.0393 69.8862L92.7512 69.0272L92.552 67.2353Z" fill="black"/>
<path opacity="0.15" d="M81.899 66.8033L82.098 68.5963L85.0406 69.8847L84.8415 68.0916L83.5511 67.5272L83.6373 68.3008L82.9274 67.9887L82.8411 67.2084L81.899 66.8033Z" fill="black"/>
<path d="M82.8411 67.2084L83.551 67.5271L83.6373 68.3008L82.9274 67.9887L82.8411 67.2084Z" fill="#08509F"/>
<path opacity="0.3" d="M82.8411 67.2084L83.551 67.5271L83.6373 68.3008L82.9274 67.9887L82.8411 67.2084Z" fill="white"/>
<path d="M82.8411 67.2084L82.9274 67.9887L106.601 50.5498L105.887 50.2278L82.8411 67.2084Z" fill="#08509F"/>
<path opacity="0.15" d="M105.887 50.2278L105.974 51.0114L106.601 50.5498L105.887 50.2278Z" fill="black"/>
<path d="M81.6038 41.7939C83.5677 38.4735 85.4189 38.5034 87.3894 38.0286C89.1344 40.4159 89.4728 45.1774 85.9497 50.2909L82.1811 56.4768C82.1811 56.4768 87.8506 59.0369 89.778 58.5288C90.3453 58.4214 90.8947 58.2347 91.4102 57.9743C92.5713 57.4862 93.0191 57.4597 94.1205 57.0446C94.9831 56.7126 95.3447 56.2842 95.5072 56.4436C95.7195 56.6462 95.9551 57.2306 95.4342 57.8548C95.1105 58.2183 94.7335 58.5307 94.3163 58.7812C95.3656 58.7371 96.4085 58.5948 97.4313 58.3562C98.8214 58.0241 99.5213 57.629 99.9095 58.1702C100.155 58.5023 99.8498 58.8974 99.7171 59.2162C99.5844 59.5349 99.6673 60.0496 99.4517 60.3883C99.3289 60.5809 99.1 60.6971 99.0005 60.9029C98.901 61.1088 98.9773 61.4442 98.8977 61.7032C98.8277 61.8835 98.7136 62.0433 98.5659 62.168C98.1247 62.593 97.5972 63.2073 97.0432 63.4962C96.6609 63.6487 96.2607 63.7514 95.8522 63.8017C94.7145 63.9904 93.5616 64.0715 92.4087 64.0441C90.269 64.0441 89.0913 63.6589 87.0179 63.38C83.1497 62.8753 78.5584 61.66 76.7338 60.9561C74.6903 60.1658 74.6306 58.6318 74.8064 56.8587C75.1149 53.7607 80.0513 44.4005 81.6038 41.7939Z" fill="#B5816F"/>
<path d="M121.814 11.2659L112.811 16.4789C112.632 16.5819 112.479 16.8309 112.479 17.3124V28.0473C112.484 28.1604 112.518 28.2704 112.575 28.3677C112.633 28.4649 112.714 28.5465 112.811 28.6051L114.088 29.3323C114.188 29.383 114.298 29.4095 114.41 29.4095C114.522 29.4095 114.632 29.383 114.732 29.3323L123.738 24.1192C123.834 24.0589 123.913 23.977 123.971 23.88C124.029 23.7831 124.063 23.6739 124.07 23.5614V12.5442C124.063 12.4319 124.03 12.3229 123.972 12.2264C123.914 12.1299 123.834 12.0487 123.738 11.9897L122.461 11.2626C122.36 11.2131 122.25 11.1876 122.137 11.1882C122.025 11.1888 121.915 11.2154 121.814 11.2659Z" fill="#37474F"/>
<path d="M114.735 29.3289C114.635 29.3772 114.525 29.4023 114.413 29.4023C114.302 29.4023 114.192 29.3772 114.091 29.3289L112.814 28.5984C112.717 28.5405 112.635 28.4591 112.578 28.3617C112.52 28.2642 112.487 28.1539 112.482 28.0406V17.3123C112.469 17.1068 112.508 16.9012 112.595 16.7147L114.503 17.8137C114.439 17.9125 114.405 18.028 114.407 18.1458V29.1596C114.413 29.3356 114.546 29.4385 114.735 29.3289Z" fill="#263238"/>
<path d="M111.607 25.205C111.404 25.0855 109.865 24.2089 109.815 24.189C109.777 24.1659 109.745 24.1347 109.721 24.0977C109.697 24.0606 109.681 24.0187 109.675 23.9748C109.669 23.931 109.673 23.8864 109.686 23.8441C109.7 23.8019 109.722 23.7632 109.752 23.7308L112.486 20.5897L114.41 21.6954L111.55 24.7535C111.522 24.7859 111.501 24.8238 111.489 24.8649C111.476 24.906 111.472 24.9493 111.478 24.9919C111.483 25.0345 111.497 25.0755 111.519 25.1122C111.542 25.149 111.571 25.1806 111.607 25.205Z" fill="#37474F"/>
<path d="M123.742 12.3716L114.735 17.5846C114.64 17.645 114.56 17.7269 114.502 17.8238C114.445 17.9208 114.411 18.0299 114.403 18.1425V21.6953L111.544 24.7534C111.504 24.7924 111.476 24.8421 111.464 24.8965C111.452 24.9509 111.455 25.0077 111.475 25.06C111.494 25.1123 111.528 25.1579 111.573 25.1913C111.617 25.2247 111.67 25.2444 111.726 25.2482L114.403 25.0523V29.143C114.403 29.3489 114.549 29.4319 114.735 29.329L123.742 24.1159C123.837 24.0556 123.917 23.9736 123.974 23.8767C124.032 23.7798 124.066 23.6706 124.074 23.5581V12.5442C124.064 12.3384 123.918 12.2554 123.742 12.3716Z" fill="#455A64"/>
<path d="M122.07 15.4363C121.973 15.3953 121.869 15.3737 121.764 15.3729C121.659 15.372 121.555 15.3919 121.458 15.4314C121.36 15.4709 121.272 15.5292 121.197 15.6029C121.122 15.6767 121.062 15.7645 121.022 15.8613L117.999 23.0633L117.279 22.3627C117.127 22.2148 116.923 22.1334 116.71 22.1365C116.498 22.1396 116.296 22.227 116.148 22.3793C116 22.5317 115.919 22.7365 115.922 22.9489C115.925 23.1612 116.013 23.3636 116.165 23.5116L117.724 25.029C117.873 25.1746 118.073 25.2557 118.281 25.2548C118.334 25.2612 118.388 25.2612 118.441 25.2548C118.568 25.2295 118.688 25.1733 118.789 25.0911C118.89 25.009 118.97 24.9033 119.021 24.7833L122.498 16.4822C122.579 16.2867 122.58 16.0668 122.5 15.8707C122.42 15.6746 122.265 15.5184 122.07 15.4363Z" fill="#FAFAFA"/>
</svg>
